<svg xmlns="http://www.w3.org/2000/svg" xmlns:xlink="http://www.w3.org/1999/xlink" x="0px"
	 y="0px" viewBox="0 0 191.2 61.9" style="enable-background:new 0 0 191.2 61.9;" xml:space="preserve">
	<path d="M41.1,61.1c-0.4,0-1.4,0-4,0.2c-0.8,0.1-1.6,0.1-2.4,0c0-0.1-0.2-0.1-0.3,0l-1.3-0.1
		c-0.8-0.1-1.7-0.1-1.9-0.1c-0.2,0-1,0-1.7-0.1l-0.9-0.1c-0.3,0-0.4-0.1-0.4-0.1c0.9-0.2,1.9-0.3,2.9-0.2l0.8,0.2
		C32.3,61,32.7,61,33,61l3.9-0.2c1.6-0.1,3-0.2,3-0.2c0.5-0.1,1.1-0.1,1.6,0C42.3,60.8,42,61.1,41.1,61.1 M47.2,61.2
		c-1-0.2-2-0.2-3,0c-1.1,0.1-0.4,0.2,1.5,0.1C47.1,61.3,47.3,61.3,47.2,61.2 M99.9,60.4c0.3-0.1,0.3-0.1-0.1-0.2
		c-0.9-0.1-1.9-0.1-2.8,0c-0.9,0.1-1.1,0.2-0.3,0.2C97.7,60.6,98.8,60.6,99.9,60.4 M101.5,59.6c1.1,0,1.4-0.1,0.8-0.1
		c-0.7-0.1-1.3,0-2,0.1C100.8,59.7,101.2,59.7,101.5,59.6 M163.8,58.1l-1.4,0c-1,0.1-0.6,0.1,0.8,0.1
		C164.8,58.2,165.1,58.1,163.8,58.1 M20.4,60.1C21,60,21,60,19.9,60c-0.4,0-0.8,0-1.2,0.2C18.6,60.3,19.5,60.3,20.4,60.1 M20.3,60.6
		c-0.4,0-0.8,0-1.2,0c-0.5-0.1-1.3,0-1.1,0.1c0.4,0.1,0.9,0.1,1.3,0.1c0.5,0,0.9,0,1.4,0.1c0.6,0.1,1.2,0.1,1.7,0
		C22.9,60.8,21.2,60.6,20.3,60.6 M25.1,60.4c-0.2,0-0.5,0-0.7,0.1C25.2,60.5,25.5,60.5,25.1,60.4 M26.6,61.1
		c-2.5,0.1-2.6,0.1-0.3,0.1c0.7,0.1,1.3,0,2-0.1C27.7,61,27.2,61,26.6,61.1 M134.1,58.9c-0.3,0-0.4,0-0.2-0.1c0.3-0.1-0.1-0.1-2,0
		c-1.7,0.1-1.4,0.2,0.5,0.2l0.9,0c0.1,0,0.3,0,0.4,0c0.7,0,0.9,0,0.9-0.1C134.5,58.9,134.3,58.9,134.1,58.9 M136.9,58.6
		c-0.6-0.1-1.2,0-1.8,0.1c-0.2,0.1,0.5,0.1,1.7,0.2C138.1,58.9,138.2,58.7,136.9,58.6 M124.9,58.9c-0.5,0-1,0-1.6,0
		C124.4,59,124.9,58.9,124.9,58.9 M188.9,47.2c-0.1,1.5-0.1,3.3-0.2,5c0-0.3-0.1-0.9-0.1-1.3c0-0.6-0.1-0.5-0.1,0.3
		c-0.1,0.8-0.1,0.9-0.1,0.1c0-1.4,0-1.1-0.1,0.9c0,0.4,0,0.9-0.1,2l-1.7,0c-0.5,0.1-0.9,0.2-1.4,0.2c-1.4,0.1-1.5,0.2-1.1,0.4
		c0.4,0.2,0.7,0.3,1.1,0.4c0.4,0.1,0.6,0.2,0.6,0.3c-0.1,0.2,0.3,0.3,1.2,0.4c1.7,0.3,1.4,0.3-1.8,0.1l-3.4-0.2
		c-0.8,0-0.9,0.1-0.6,0.2c0.3,0.1,0.6,0.1,0.8,0.2l0.6,0.1l1,0.1c2.8,0.2,3,0.3,1.5,0.3l-1.4,0l-0.9,0l-0.7,0l-3.4-0.2
		c-3.9-0.3-4.4-0.4-3.2-0.8c0.4-0.1-1.4-0.1-1.9,0c-0.2,0-1.4,0.1-2.7,0.2c-1.3,0.2-2.7,0.2-4-0.1c-0.4-0.1-0.8-0.1-1.2,0
		c-0.8,0.1-1.7,0.1-2.5-0.1c0.1-0.1,0-0.1-0.8-0.1c-0.9,0-1.6,0.2-1.3,0.3c0.1,0,0,0.1-0.2,0.1c-0.2,0-0.1,0.1,0.3,0.1
		c0.7,0.1-1.9,0.2-2.8,0.1c-0.6,0-1.2,0-1.8,0.1c0.8,0,1.7,0.1,2.5,0.2c-0.4,0.1-0.8,0.1-1.2,0.1c-0.7,0-1.6,0-2.2,0
		c-0.8,0-1.1-0.1-1-0.2c0.2-0.1,0-0.1-0.7-0.1c-0.3,0-0.6,0-0.9,0.1c-1.3,0.2-2.7,0.3-4,0.1c-1.6-0.1-2-0.1-5.7,0
		c-1.4,0.1-2.8,0.1-4.3,0c-0.4-0.1-0.9-0.1-1.3,0c-0.6,0-2.4,0-4,0l-3.2,0l-1.8,0c-1.6-0.1-3.1-0.1-4.7,0.2c0.1,0.1-0.5,0.1-1.8,0.1
		c-0.9,0-2.5,0-5.7,0.3l-0.3,0c0-0.1-0.1-0.2-0.1-0.2c0,0.1,0,0.1,0,0.2c-1,0.1-2.1,0.1-3.1,0.1c-0.3,0-1.4,0-2.5,0l-4.1,0
		c-4,0-7.4,0.1-7.9,0.2c-0.3,0.1-0.3,0.1,0.1,0.1c0.2,0,0.5,0.1,0.6,0.2c0.2,0.3,0.8,0.5,2,0.5c0.9,0,1.1,0,0.9,0.1
		c-0.1,0.1,0,0.1,0.3,0.1c0.9,0,0.7,0.2-0.2,0.2l-1.8,0c-0.3,0-0.6,0-0.9,0c-0.8-0.1-1.6-0.1-2.4,0.1c-3,0.4-6.1,0.5-9.1,0.4
		c-0.3,0-0.4-0.1-0.6-0.1c-0.1-0.4-0.2-0.4-0.3,0c-0.2,0-0.4,0-0.7,0c-0.6,0-1.5,0.1-2.1,0.1c-1.2-0.1-2.4,0-3.6,0.3
		c-0.2,0.1-0.3,0.1-0.8,0.1c-0.3,0-1-0.1-1.5-0.1c-0.4,0-0.8,0-1.3-0.1c-1.4-0.1-2.8-0.1-4.1,0c-0.7,0.1-1.4,0.1-2.1-0.1
		c-0.7-0.1-1.4-0.1-2.1,0c-0.4,0.1-1.2,0.1-3.1,0.1c-1-0.1-2,0-3,0.2c-0.5,0.1-0.9,0.2-1.4,0.1c-0.6,0-1.3,0-1.9,0.1
		c-0.5,0.1-1.5,0.2-2.3,0.2c-1.4,0.1-1.4,0.1-0.6-0.2c0.6-0.2,1.3-0.2,1.9-0.3c-0.2-0.1-0.1-0.1,0.5-0.2c0.3,0,0.6-0.1,0.9-0.2
		c-0.8-0.1-1.7,0-2.5,0.1c-0.3,0-1.3,0.1-2.3,0.1c-0.8,0.1-1.7,0.1-2.5-0.1c-0.5-0.1-1.1-0.2-1.7-0.1c-0.5,0-1,0-1.5-0.1
		c-0.1,0-0.2,0-0.3,0c0.2-0.1,0.3-0.3,0.4-0.5c0-0.3-0.3-0.3-0.5,0.1c-0.1,0.3-0.1,0.4,0,0.4c-0.5,0-1.3-0.1-2.4-0.1
		c-2.8,0-2.7,0-2.3-0.3c0.2-0.1,0.1-0.2,0.1-0.2c-1.3,0.1-2.5,0.3-3.7,0.5c-0.5,0.2-1.9,0.1-1.8-0.1c0.1-0.1-0.2-0.1-1.8-0.1l-3.2,0
		c-0.4,0-0.8,0-1.2-0.1c0.8-0.2,1.6-0.2,2.5-0.1c1.6,0,2.6-0.1,1.6-0.1c-1.1-0.1-0.8-0.2,0.5-0.2c1.4,0,1.8-0.1,1.3-0.2
		c-0.8-0.2-1.6-0.2-2.4,0c-1.4,0.2-2.8,0.2-4.2,0.2c-0.3-0.1-0.6-0.1-1-0.1c-0.3,0-0.7,0-1-0.1C29.8,58,30,58,31,58
		c1.3,0,2.5-0.1,3.7-0.3c-0.2,0-0.5,0-0.7,0l-1.6,0c-1.2,0-2.7,0.1-3.5,0.2c-0.7,0.1-2,0.1-2.9,0.1c-1.7,0-2.6,0.1-2.5,0.2
		c-0.9,0.2-1.8,0.2-2.8,0.1c0.6-0.1,0.6-0.1,0-0.1c-0.4,0-0.7,0.1-1.1,0.2c-0.8,0.2-1.7,0.2-1.4,0c0.2-0.1,0.2-0.1-2.2-0.1l-3.4,0.1
		c-0.6,0-2.2,0-3.6,0c-3.9-0.1-5,0-5.5,0.2c-0.6,0.1-1.2,0.2-1.8,0.2c0-1.2,0.1-2.5,0.2-3.5C1.9,54.5,2,54.7,2,55.9
		c0,1.9,0.1,1.3,0.3-1.5c0.1-1,0.2-3.2,0.3-4.8c0.1-0.9,0.1-1.8,0.2-2.7c0-0.7,0.1-1.5,0.1-2.1c0.1-1.6,0.1-2.3,0.2-3.2
		c0.2-2,0.3-4,0.3-6c0-0.4,0-0.9,0-1.3c0.1-1.1,0.2-1.1,0.2,0c0-0.5,0.1-1.2,0.2-1.7c0.1-0.9,0.2-1.9,0.2-2.8c0.1-2.2,0.2-2.6,0.2-1
		c0,0.9,0,1.4-0.1,2.5C4,32.5,4,33.1,4,35.4c0,2.8,0,3.6-0.2,3.8c-0.1,0.4-0.1,0.7-0.1,1.1c-0.1,1,0,2,0.1,1.7c0,0.5,0,1.1-0.1,1.6
		c0,0,0,0-0.1,0c-0.4-0.2-0.4,0-0.1,0.6c0,0,0,0.1,0.1,0.1c-0.1,0.7-0.1,1.5-0.2,3.4c-0.1,1.6-0.2,4-0.2,5.1c-0.1,0.7-0.1,1.3,0,2
		c0-0.1,0.2,0.2,0.2-0.8c0.1-2.2,0.1-2.9,0.1-4.1c0-2.6,0.2-5.8,0.3-3.9c0,0.4,0.1,0.6,0.1,0.3c0.1-0.3,0.1,0,0.1,0.9l0.2-3.2
		c0,0.2,0,0.3,0,0.3c0-0.8,0-1.6,0-2.3c0-0.3,0.1-1.1,0.1-1.9c0-1,0-2,0.2-3c0.1-0.4,0.1-0.7,0.1-1.1l0.7-14
		c-0.4,0.5-0.7,1.3-1.1,1.9c-0.1,0.2-0.3,0.3-0.4,0.4c-0.2,0.1-0.4,0-0.5-0.2c-0.1-0.2-0.1-0.5-0.1-0.7c-0.1-1.6-0.1-3.2-0.2-4.8
		c0-0.8,0-1.7,0.1-2.5c0.1-0.6,0.3-1.1,0.5-1.7c-0.1,0-0.2,0-0.3-0.1c-0.1-0.1-0.2-0.1-0.3,0c-0.1,0.1-0.2,0.1-0.3,0.1
		c-0.1,0-0.4,0.2-0.4,0.4c0,0.4-0.9,0.4-1,0c-0.1-0.1-0.1-0.3-0.2-0.4c-0.3-0.3-0.1-0.7,0.4-1C2.1,13,2.1,13,1.8,12.8
		c-0.3-0.1-0.3-0.3,0-0.4c-0.1-0.1-0.3-0.1-0.6,0c-0.1,0.1-0.2,0.1-0.3,0.1c-0.3-1.1-0.4-2.2-0.3-3.4C0.8,8.5,1,7.8,1.1,7.1
		c0.2-1,0.2-1,0.7-1.1c0.4-0.1,0.7-0.4,0.9-0.7C3.1,4.8,3.5,4.6,4,4.6c0.7,0,1.3-0.2,1.8-0.6c1.2-0.7,2.5-1,3.9-0.7
		c0.7,0.1,1.8,0.1,2.5,0.1s1.6,0.1,2,0.1c0.4,0.1,1.3,0.1,2.3,0.1c0.1,0.4,0.3,0.6,0.7,0c2.4,0,5.5-0.1,6.8-0.2c0.4,0,0.9-0.1,1-0.1
		c0.2,0,0.7,0,2.1-0.2c0.4,0,3.7-0.2,4.2-0.2l19.6,0.1l10,0.2l0,0C60.8,3.1,62,3,62.8,3.1c0.3,0,0.9,0,1.4,0c0.3,0,0.6,0,0.9,0.1
		c0.5,0.2,1,0.2,1.5,0.1c0.3,0,0.9-0.1,1.3-0.1c0.4,0,0.7,0,1.1-0.1c0.5-0.1,1-0.1,1.5,0c0.7,0.1,1.4,0.2,2,0.1
		c0.3,0,0.2-0.1-0.4-0.1c-0.5,0-0.8-0.1-0.8-0.2c-0.8,0-0.6-0.1,1-0.2c1.2-0.1,1.5-0.2,1.5-0.3c-0.1-0.2,0.8-0.2,2.2-0.1
		c0.5,0,0.5,0.1,0,0.2c-0.9,0.2-0.8,0.3,0.7,0.4c1.6,0.1,5.6,0.1,7.5-0.1c1.8-0.1,2-0.1,1.4,0c-0.6,0.1,0.1,0.2,1.3,0.2
		c0.5,0,0.9-0.1,0.9-0.2c0.1-0.1,0.1-0.1,3.7-0.2c4.2-0.1,4.1-0.1,2.3,0.1c-1.5,0.1-1.5,0.2,0.1,0.2c0.6,0,1.4,0,1.8,0
		c1.7,0.1,4.3,0.2,5.3,0.1c0.9-0.1,0.9-0.1-0.5-0.1c-0.8,0-1.7,0-1.8-0.1c-0.3,0-0.6-0.1-1,0c-1,0-0.5-0.1,0.6-0.2
		c0.9,0,1.7-0.2,2.6-0.4c1-0.2,1.9-0.2,2.9-0.1c1.3,0,1.9,0,2.4,0c0.3,0,1.5-0.1,2.7-0.1c1.2,0,2.3-0.1,2.6-0.1c0.3,0,1-0.1,1.7-0.1
		s1.4,0,1.6-0.1c1.5-0.1,3.1-0.2,4.6-0.1c0.4,0.1,0.9,0.1,1.3,0.1c0,0.1,0,0.2,0,0.3c-1.3,0.1-1.8,0.1-1.8,0.2
		c-0.3,0.1-0.7,0.2-1.1,0.2c-0.8,0.1-1.6,0.2-2.4,0.1c-1.3-0.1-2.6,0-3.9,0.3c-2.6,0.3-2.6,0.3-0.7,0.3l3.5-0.1c0.6,0,1.3,0,1.9-0.1
		c1-0.1,2-0.2,3-0.2c0.2,0,0.3,0.1,0.1,0.1c-0.5,0.2,0.1,0.3,1.1,0.3c0.5,0,0.8,0,1.3,0c-0.8,0.1,0.1,0.2,1.7,0.1
		c0.9,0,1.3-0.1,1.1-0.1c-0.2-0.1,0.7-0.1,1.5,0c0.4,0.1,0.7,0.1,1.1,0c0.4-0.1,0.4-0.1-0.5-0.2c0.8-0.1,1.6-0.1,2.4-0.1
		c0.7,0,1.4,0,2.1,0c0.3-0.1,4-0.1,4.4-0.1c0.2,0,0.1,0.1-0.2,0.1c-0.4,0.1-0.3,0.1,0.1,0.2c0.3,0.1,0.5,0.1,0.3,0.2
		c-0.4,0.2,1.7,0.5,3,0.5c0.5,0,1,0,1.5,0c0.7,0.1,1.3,0.1,2,0c1.2,0,1.5,0,1,0c-0.6,0.1-0.6,0.1,0,0.2c0.3,0,0.4,0.1,0.4,0.1
		c0.1,0,0.3,0,0.3,0c0,0,0,0.1-0.3,0.1c-0.3,0.1-0.8,0.1-1.4,0.2c1,0.2,2.1,0.3,3.2,0.2c1.9-0.1,1.8-0.1-0.4,0.2
		c-1.7,0.2-1.8,0.2-0.8,0.2c0.1,0,0.2,0,0.3,0l0.1-0.1c0.3-0.1,0.6-0.1,0.9-0.1c0.2,0,0.3,0,0.5,0c0.1,0,0.2,0,0.3,0
		c0.9-0.2,1.8-0.2,2.8-0.2c-0.6,0.2-1.2,0.2-1.8,0.3c-0.4,0-0.7,0.1-0.5,0.1c0.5,0,0.9,0,1.4-0.1c0.6-0.1,1.5-0.1,2-0.1
		c0.6,0,1.2-0.1,1.8-0.2c1.4,0.2,1,0.5-0.7,0.5c-0.2,0-0.4,0-0.5,0.1c-0.1,0.1-0.3,0.2-0.4,0.2c-0.2,0.1,0,0.1,0.5,0.1
		c0.5,0,0.7,0.1,0.5,0.2c-0.2,0.1,0,0.1,0.7,0.1c0.6,0,0.9,0,0.9,0.1c0,0.1,0.2,0.1,0.9,0c1.2-0.2,2.3-0.2,3.5-0.1
		c0.9,0.2,1.9,0.2,2.9,0c0.3-0.2-0.1-0.2-1.7-0.3c0.3,0,0.4-0.1,0.2-0.1c0.9-0.1,1.8-0.1,2.7-0.1c1.5,0,2.1,0.2,1.4,0.4
		c-0.5,0.1-0.5,0.1,0.4,0.2c2.1,0.1,3,0.2,2.8,0.2c-0.1,0,0.2,0.1,0.7,0.1s1.2,0,1.7,0c1.3,0,2.7,0,4-0.1c1-0.1,2-0.1,3,0
		c0.4,0.1,0.9,0.2,1.3,0.2c0.9,0.1,2.4,0.6,1.9,0.7c-0.3,0.1,0.9,0.4,1.7,0.5c0.2,0,0.5,0,0.7,0.1c0,0.1-0.2,0.1-1.8,0.1
		c-0.4,0-0.7,0.1-0.6,0.1c-0.9,0.3-1.8,0.3-2.8,0.3c-0.4,0-0.8,0-1.2,0c-0.2,0-1,0.1-1.8,0.1c-1.2,0-1.4,0-1.4,0.2l9.9-0.1
		c0,0.1,0.1,0.1,0.2,0l7.4-0.1c0-0.1,0.1-0.1,0.1,0l0.7,0c0,0.1-0.1,0.1-0.1,0.2c-0.1,0.2-0.1,0.4,0,0.6c0.4,1,0.7-0.3,0.6-0.8
		l0.1,0l-0.2,4c0.1,0,0.1,0.1,0,0.1l-0.5,10.3l0.1,0.2c0.1,0.7,0.2,1.4,0.2,2.1c0,1.1,0,2.2-0.2,3.3c0,1.1-0.2,2.2-0.5,3.3l-0.4,6.7
		c0.1-1,0.1,0.6-0.1,2.1c0,0.3-0.1,0.5-0.1,0.7l-0.3,6.6c0-0.3,0-0.2,0,0.3c0,0.6,0,0.8,0.1,0.4c0-0.3,0.1-0.2,0.1,0.2
		c0,0.1,0,0.2,0,0.2c-0.1,0-0.2,0-0.2,0.2c-0.1,0.2-0.1,0.4,0.1,0.7c0.7,1.4,0.6-0.7,0.2-0.9c0-0.2,0.1-0.7,0.2-1.6
		c0.1-0.6,0.1-1.2,0.2-1.6c0-0.2,0.1-0.4,0.1-0.6c0.1-0.6,0.2-1.1,0.2-1.7c0.2-2.1,0.4-1.2,0.2,0.9c0,0.4-0.1,0.8-0.1,1.3
		C189,45.8,188.9,46.5,188.9,47.2 M1.6,11.2c-0.1,0.4,0.3,0.8,0.5,0.5C2.5,11.1,2,9.8,1.6,11.2 M4.7,55.5c0.2,0.4,0.6,0.5,0.7,0.3
		C6.3,53.6,4.2,54.6,4.7,55.5 M8.8,8.9l-0.6,1.2C8.1,10.9,9.4,8.9,8.8,8.9 M8.9,21c0.4-1.1-0.6,0-0.6,0.2C8.4,21.5,8.7,21.4,8.9,21
		 M7.8,41c0,0.2,0,0.4,0.1,0.6C8,41.1,7.9,41,7.8,41 M10.1,35.7c-0.2,0,0,0.7,0,0.8C10.1,36.3,10.3,35.7,10.1,35.7 M12.5,46.2
		c-0.1,0.1-0.3,0-0.3-0.1c0,0,0,0,0-0.1c-0.1-0.4-0.2-0.4-0.4,0c0,0.3,0,0.6,0.1,0.8C12.6,48.5,13.1,46,12.5,46.2 M16.9,54.1
		c-0.2-0.1-0.8,0.4-0.7,0.6C16.6,55.4,17.6,54.5,16.9,54.1 M25.2,9.3c0-0.1-0.1-0.2-0.3-0.2C25,9.5,25.2,9.5,25.2,9.3 M23.5,53.1
		c-0.4,0-0.5,0-0.5,0.3C22.9,54.8,25.1,53.3,23.5,53.1 M25.4,41.4c-0.1-0.2-0.8,0.3-0.7,0.5C24.9,42.8,25.5,41.6,25.4,41.4
		 M29.3,55.8c-0.2,0,0,0.7,0,0.8C29.3,56.4,29.5,55.8,29.3,55.8 M30.7,45.9c0.1-1.3-1.6-2.1-0.8-0.4C30,45.9,30.7,46.2,30.7,45.9
		 M33.9,10.9c-0.3-0.3-1.5,1.1-0.2,0.7C34.1,11.5,34.2,11.2,33.9,10.9 M36.4,44.4c-0.1,0-0.3,0.2-0.3,0.3C36,45.1,36.2,45,36.4,44.4
		 M41.2,7c0.6,0.7,0.8-0.9,0.3-0.5c-0.1,0.1-0.2,0-0.3-0.1C41.1,6.5,41.1,6.8,41.2,7C41.2,7,41.2,7,41.2,7 M38.8,54.4
		c0,0.7,0.1,0.7,0.4,0.1C39.7,53.4,38.9,53.3,38.8,54.4 M41.5,12.9c-0.1,0.2-0.1,0.4,0,0.6l0.6,0C42.2,12.9,42.1,11.9,41.5,12.9
		 M42.8,51.2c-0.2,0,0,0.7,0,0.8C42.8,51.9,43,51.2,42.8,51.2 M48.1,5.2c-0.8-0.4-0.8,1.1,0,0.8C48.5,5.9,48.5,5.4,48.1,5.2
		 M48.9,46.4c-0.1-0.3-1.2-0.5-1.7-0.3c-0.1-0.3-0.7-0.4-0.7-0.1C46.4,47.1,49.4,47.5,48.9,46.4 M53.1,10.2c0.1,0.2,0.2,0.1,0.3-0.1
		C53.8,9.4,52.8,9.6,53.1,10.2 M52.4,43.2c0.1,0.2,0.2,0.1,0.3-0.1C53.2,42.4,52.1,42.7,52.4,43.2 M54.2,53.1c0-0.3-0.3-0.3-0.5,0.1
		C53.5,54.1,54.2,53.3,54.2,53.1 M57,6.3c0.1,0.3,0.4,0.2,0.6-0.2C58,5.1,57,6.1,57,6.3 M59.6,43.1c0,0.1,0.1,0.2,0.3,0.2
		C60.6,43.4,59.6,42.6,59.6,43.1 M63,3.5c0-0.1-0.1-0.2-0.3-0.2C62.9,3.8,63,3.8,63,3.5 M65.2,9.9c-0.1,0.6,0.3,0.7,0.2,0.4
		C65.4,10.1,65.3,10,65.2,9.9 M63.4,50.9c-0.1-0.2-1.2,0.2-1.2,0.5c0,0.3,0.4,0.9,0.7,0.8C62.4,53.1,64,52,63.4,50.9 M70.9,12.1
		c-0.1-0.3-1.2-0.5-1.7-0.3c-0.1-0.3-0.7-0.4-0.7-0.1C68.4,12.8,71.4,13.2,70.9,12.1 M69.9,51.6c0-0.7-1.4,1.6-1.1,0.4
		c0.1-0.5-0.2-0.6-0.5,0.2c0.3,0-0.2,1,0.9,1.1c0.1-0.4,0.2-0.8,0.4-1.1C69.7,52,69.8,51.8,69.9,51.6 M71.4,3.4
		c-1.5-0.2-1.4,0.9-1.7,0.3C69.2,2.7,70,6,70,5.5c0-0.5,0.3-0.8,0.8-0.6c0-0.7,1.7,0.5,2-0.5C74,1.3,73.1,3.7,71.4,3.4 M76.3,10.8
		c0-0.3-0.3-0.6-0.4-0.3C76,11.2,76.3,11.2,76.3,10.8 M75.1,48.1c-0.5-0.2-0.2,1.3,0.2,0.7c0.2-0.2,0.1-0.5,0-0.6
		C75.3,48.2,75.2,48.1,75.1,48.1 M76.5,57c0.2,0.4,0.6,0.5,0.7,0.3C78.1,55.1,76,56.2,76.5,57 M80.6,47.6c0-0.2-0.1-0.4-0.2-0.5
		C80.5,47.7,80.6,47.8,80.6,47.6 M85.9,8.8c0.3,0.7,1-0.2,0.4-0.7c-0.6-0.5-0.2-1.9-1-0.9C84.2,8.6,85.6,8.2,85.9,8.8 M84.2,56
		c-1.5-0.2-1.4,0.9-1.7,0.3c-0.5-1.1,0.2,2.2,0.2,1.7c0-0.5,0.3-0.8,0.8-0.6c0.1-0.7,1.7,0.5,2-0.5C86.8,53.8,85.9,56.2,84.2,56
		 M89.3,46c0.2,0.4,0.6,0.5,0.7,0.3C90.9,44.1,88.8,45.1,89.3,46 M91.7,11.1c-0.9,0.2,0.3,0.6,0.5,0.2C92.3,11.1,92.2,11,91.7,11.1
		 M94.9,45c-0.1,0.1-0.3,0-0.3-0.1c0,0,0,0,0-0.1c-0.1-0.4-0.2-0.4-0.4,0c0,0.3,0,0.6,0.1,0.8C94.9,47.3,95.5,44.8,94.9,45
		 M95.8,57.3c0-0.3-0.3-0.3-0.5,0.1C95.1,58.2,95.8,57.5,95.8,57.3 M98.9,4.8c-0.3-0.3-1.5,1.1-0.2,0.7C99.1,5.3,99.2,5.1,98.9,4.8
		 M100,53.6c0,0.3,0.2,0.4,0.3,0.3C100.5,53.7,100.4,53.5,100,53.6 M103.9,9.4c0-0.7-1.4,1.6-1.1,0.4c0.1-0.5-0.2-0.6-0.5,0.2
		c0.3,0-0.2,1,0.9,1.1c0.1-0.4,0.2-0.8,0.4-1.2C103.7,9.8,103.8,9.6,103.9,9.4 M105.4,44.1c0-0.1,0-0.1,0-0.2l-0.1,0
		C105.3,44,105.4,44.1,105.4,44.1 M112,6.4c0-0.2-0.1-0.4-0.2-0.5C111.9,6.6,112,6.7,112,6.4 M109.9,54.5c-0.2-0.8-0.5-0.6-0.3,0
		C109.9,55.2,110.1,55.2,109.9,54.5 M113.6,14.4c-0.1-0.3-0.1-0.6-0.1-0.9c0-0.9-1.5-0.6-1.4-0.4c0.4,0.3,0.8,0.7,0.9,1.3
		L113.6,14.4z M113.9,46.8c-0.1-0.4-0.4-0.3-0.5,0.2C113.2,48,114,47.5,113.9,46.8 M113.8,8.3c0.3,0.3,0.4-0.6,0.6,0
		c0.8-0.6,1.4,0.9,1.8-0.4C116.8,5.9,112.7,7.1,113.8,8.3 M120.2,11.4c0.1-1.2-1.3-0.7-0.8-0.1C119.6,11.6,120.1,11.7,120.2,11.4
		 M123.6,55.7c-0.1-0.5-0.2-1-0.2-1.5c0-0.9-1.5-0.6-1.4-0.4C123,54.3,123.2,56.6,123.6,55.7 M123.5,45.1c0.3,0.6,0.8,0.1,0.6-0.4
		l-1.3-0.1C123.1,44.7,123.4,44.9,123.5,45.1 M125.3,4.5c0.3,0.3,0.4-0.6,0.6,0c0.8-0.6,1.4,0.9,1.8-0.4
		C128.3,2,124.2,3.2,125.3,4.5 M128.5,13.4c0-0.2-0.1-0.4-0.2-0.5C128.4,13.5,128.4,13.6,128.5,13.4 M129.2,51.5
		c0.2,0.4,0.6,0.5,0.7,0.3C130.9,49.6,128.7,50.6,129.2,51.5 M132.9,11.4c-0.4,0-0.5,0-0.5,0.3C132.3,13,134.5,11.5,132.9,11.4
		 M135.8,54.2c0.1-0.6,0-1.2-0.1-1.8C135.5,52.5,135.4,54.2,135.8,54.2 M140.1,8c-1.1-1.3,0.3,0.8-1,0.7c-1-0.1-1.6-2.7-1.7-1.2
		c0,0.2,0.1,0.4,0.2,0.4c0.5,0,0.8,1.7,1.4,1.3C139,9.1,141.4,9.6,140.1,8 M144.2,45.6c0.1,0.5,0.2,1.2,0.5,0.4
		c0-0.1,0.1-0.2,0.1-0.4L144.2,45.6z M143.8,12.3c0.4-0.1,0.5-0.4,0.2-0.7C143.7,11.3,142.5,12.7,143.8,12.3 M144.6,54.5
		c-0.2,0.4-0.2,0.4-0.3,0c-0.3-1.2-1,1-1.2-0.1c0-0.3-1.7-0.9-1.2,0.6c0.1-0.1,0.2,0,0.4,0.5c0.3,0.8,0.7,0.9,0.6,0.3
		c-0.1-0.6,0.4-0.9,1.2-0.6C145.3,55.4,145,53.8,144.6,54.5 M148.7,7.6c0-0.3-0.3-0.3-0.5,0.1C147.9,8.6,148.7,7.9,148.7,7.6
		 M151.7,50.4c0,0.1,0.1,0.2,0.3,0.2C152.8,50.6,151.8,49.8,151.7,50.4 M154.3,10.9c-0.9-0.5,0,0.9-0.3,1.2
		c-0.2,0.1-0.2,0.7-0.1,0.7C154.1,12.9,155.1,11.4,154.3,10.9 M155.6,56c-0.1-0.4-0.3-0.5-0.4-0.1C155.3,56.1,155.3,56.2,155.6,56
		 M158.8,14.4c0.1-1.3-1.6-2.1-0.8-0.4C158.2,14.4,158.8,14.7,158.8,14.4 M163.1,10.2c0-0.8-1.1-1.2-0.6-0.1
		C162.8,10.7,163.1,10.8,163.1,10.2 M162.7,53c0-0.6-0.8,0-0.6,0.7c0.1,0.3,0.4,2,0.8,0.7C163.3,53.4,162.6,53.8,162.7,53
		 M167.6,51.2c0-0.2-0.1-0.3-0.2-0.3C167.3,51.5,167.6,51.5,167.6,51.2 M171.5,10.4c-0.1,0.1-0.2,0-0.3-0.2c-0.2,0.2-0.2,0.4,0,0.6
		c0,0,0,0,0,0C171.9,11.5,172,10,171.5,10.4 M176.6,12.3c-0.4-0.2-0.4,0-0.1,0.6C177.2,14,177.4,12.6,176.6,12.3 M180.2,27.8
		c0.1,0.6,0.2,0.7,0.2,0.5C180.4,28.1,180.3,27.9,180.2,27.8 M176.1,52.1c-0.9,0.2,0.3,0.6,0.5,0.2C176.7,52,176.6,52,176.1,52.1
		 M178.4,36.6c-0.1-0.5-0.6-0.1-0.6,0.1C177.8,37,178.2,36.9,178.4,36.6 M178.6,45.2c0.3,0.3,0.4-0.6,0.6,0c0.8-0.6,1.4,0.9,1.8-0.4
		C181.5,42.8,177.5,44,178.6,45.2 M183.3,19.2c0.1,0.3,0.4,0.2,0.6-0.2C184.3,18,183.3,19,183.3,19.2 M181.1,53.7
		c-0.1,0.2-0.1,0.4,0.1,0.7C182.1,56.1,181.7,52.7,181.1,53.7 M183.1,31.5c-0.4,0-0.5,0-0.5,0.3C182.5,33.2,184.7,31.7,183.1,31.5
		 M185.6,35.5c-0.1-0.3-1.2-0.5-1.7-0.3c-0.1-0.3-0.7-0.4-0.7-0.1C183.1,36.2,186.1,36.6,185.6,35.5 M188.9,27.7
		c-0.1,0-0.2,0.1-0.2,0.3C188.7,28.8,189.4,27.7,188.9,27.7 M109,59.5c-0.4-0.1-0.8,0-1.2,0.1C108.2,59.6,108.6,59.6,109,59.5
		 M125.8,59.3c-0.1,0-0.7,0.1-1.3,0.1c-0.6,0-1.2,0-1.4,0c-0.9-0.1-1.9,0-2.8,0.1c-1.3,0.2-0.6,0.3,0.9,0.2c0.3-0.2,0.8-0.3,0.9-0.2
		c0,0,0,0.1,0,0.1c0.2,0,0.4,0,0.6-0.1c0.5-0.1,1.1-0.1,1.6,0c1.4,0,2.9-0.1,4.3-0.3C127.6,59.1,126.7,59.2,125.8,59.3 M113.9,59
		c0.5,0.1,1.1,0.1,1.6,0C115,58.9,114.4,58.9,113.9,59 M107.2,58.8l-1.5,0c-1.1,0-2.3,0.1-2.6,0.2c-0.4,0.1-0.9,0.1-1.3,0.1
		c-0.6,0.2,0.1,0.2,0.5,0.1c0.9,0,1.5,0,1.9-0.1c0.5,0,1.1-0.1,1.6,0c0.7,0,1.4,0,2.1-0.2C107.6,58.8,107.4,58.8,107.2,58.8
		 M0.3,26.2c0-0.6-0.1,0.2-0.1,2.2C0.2,27.7,0.3,27,0.3,26.2 M-1.2,30.5c-0.1,1.5-0.2,2.6-0.2,3.2c0,0.6,0,1.5-0.1,2.1
		C-1.3,35.6-1.2,31.6-1.2,30.5 M1.1,19.4C1.1,19,1.2,18.5,1.2,18C1.1,17.6,1,19.5,1.1,19.4 M0.6,26.5c0.1-0.6,0.1-0.6,0.1-2
		c0-1.4,0-1.4-0.2,0.1C0.3,26.5,0.4,28.3,0.6,26.5 M136.8,2.6c0.1,0,0.3,0,0.4,0l1,0c0.8,0,1.6-0.1,1.9-0.1c0.9-0.1,0.8-0.2-0.1-0.1
		c-0.4,0-1.2,0.1-2,0.1l-0.9,0.1C137.1,2.5,137,2.5,136.8,2.6 M130.9,2.1c1.6,0.1,3.6,0,2.6-0.2c-1-0.1-2-0.1-3,0
		C130,2.1,130.1,2.1,130.9,2.1 M121.9,1.7l0.2,0c2.2-0.1,3.1-0.2,2-0.3c-0.3,0-0.9,0-1.3,0c-0.3,0-0.6,0-1,0
		C121.8,1.6,121.8,1.6,121.9,1.7 M-0.4,24c0-0.2,0.1-0.3,0.1-0.5c0-0.1,0-0.3,0-0.4c0-0.1,0-0.3,0.1-0.4c0.1-1,0-1.1-0.1-0.4
		C-0.5,22.9-0.5,23.4-0.4,24 M12.3,61.5l-2.4,0c-0.7,0,0.3,0.1,1.9,0.1c0.7,0,1.3,0,2,0C14.7,61.5,14.3,61.4,12.3,61.5 M19.3,61.5
		c0.6,0.1,1.2,0.1,1.8,0.1c1.2,0,1.2,0-0.2-0.1C19.4,61.4,18.5,61.4,19.3,61.5 M10.1,61c-0.4,0-0.7,0-0.7,0.1
		C9.5,61.2,10.4,61.2,10.1,61 M12.7,60.6c1.1,0,1.4-0.1,0.8-0.1c-0.6,0-1.1,0-1.7,0C10.7,60.6,11.3,60.7,12.7,60.6 M-0.4,32.7
		L-0.4,32.7c-0.1,1.2-0.2,1.9-0.3,3.6c-0.1,3.2-0.1,4,0.1,1.6c0.1-1.2,0.2-2.4,0.2-3.7C-0.4,33.9-0.4,33.2-0.4,32.7
		C-0.4,32.7-0.4,32.7-0.4,32.7 M-0.6,18.2c0,0.8,0,1.4,0,1.5c0,0.2,0,0.3,0,0.2c0-0.2,0.1-0.4,0.1-0.6c0-0.5,0.1-1.2,0.1-2.1
		c0.4-6.4,0.4-6.4,0.2-7c-0.1-0.3-0.2-0.5-0.3,1.4c-0.3,5.5-0.3,5.7-0.2,5C-0.5,16.2-0.5,16.6-0.6,18.2 M-0.4,32.3
		C-0.4,32.3-0.4,32.3-0.4,32.3C-0.3,31.6-0.3,31.6-0.4,32.3 M111.6,58.8c-0.7-0.1-1.4-0.1-2.1,0.1c-0.3,0.2,0,0.2,1.6,0.1
		C112.2,58.9,112.3,58.9,111.6,58.8"/>
</svg>
