<?xml version="1.0" standalone="no"?>
<!DOCTYPE svg PUBLIC "-//W3C//DTD SVG 20010904//EN"
 "http://www.w3.org/TR/2001/REC-SVG-20010904/DTD/svg10.dtd">
<svg version="1.0" xmlns="http://www.w3.org/2000/svg"
 width="3363.000000pt" height="1586.000000pt" viewBox="0 0 3363.000000 1586.000000"
 preserveAspectRatio="xMidYMid meet">

<g transform="translate(0.000000,1586.000000) scale(0.100000,-0.100000)"
fill="#000000" stroke="none">
<path d="M8373 15828 c-13 -14 -24 -44 -28 -77 -17 -125 -89 -302 -155 -383
-38 -46 -184 -130 -374 -215 -154 -69 -196 -77 -196 -40 0 49 -26 67 -130 91
-19 4 -25 12 -25 30 0 23 6 27 55 37 78 16 90 24 90 63 0 27 -10 43 -60 90
-76 73 -126 95 -212 96 -60 0 -69 -2 -87 -27 -28 -35 -34 -63 -21 -98 7 -19 8
-31 0 -39 -13 -13 -13 -62 -1 -85 15 -27 2 -61 -23 -61 -31 0 -83 -35 -100
-68 -8 -15 -26 -33 -39 -39 -40 -18 -97 -74 -97 -94 0 -24 -6 -24 -55 2 -22
12 -64 30 -93 40 -144 50 -227 119 -282 235 -39 84 -57 95 -150 90 -44 -2 -76
-8 -78 -15 -9 -28 -22 -6 -22 39 0 34 8 67 25 100 14 27 25 60 25 74 0 25 -50
76 -75 76 -51 0 -112 -75 -141 -176 -16 -55 -17 -57 -27 -34 -6 14 -11 69 -11
122 -1 111 -13 130 -76 125 -50 -3 -73 -53 -78 -172 -9 -192 78 -372 208 -430
29 -13 39 -24 42 -46 4 -26 0 -30 -59 -59 -73 -34 -81 -36 -59 -14 22 21 20
51 -3 63 -14 8 -37 4 -90 -14 -82 -28 -83 -26 -35 58 21 37 32 87 20 87 -3 0
-33 -21 -68 -48 -35 -26 -83 -56 -108 -67 -25 -10 -94 -47 -155 -80 -198 -109
-219 -117 -248 -104 -22 10 -36 5 -127 -42 -116 -61 -135 -81 -127 -139 l5
-40 -70 0 c-155 0 -281 60 -418 199 -47 48 -96 108 -109 135 -22 45 -24 47
-42 30 -31 -28 -24 -71 22 -137 37 -52 40 -62 32 -90 l-9 -32 -53 68 c-52 66
-55 68 -94 65 -33 -2 -45 -9 -56 -29 -14 -25 -13 -33 13 -97 46 -119 124 -238
226 -346 53 -56 110 -120 128 -143 46 -59 124 -114 168 -118 19 -2 43 -10 53
-19 11 -10 36 -16 67 -16 57 0 130 -32 183 -80 28 -26 32 -36 27 -60 -11 -59
77 -91 138 -51 26 18 30 18 57 2 l28 -16 -6 -105 c-6 -115 10 -286 33 -352 8
-22 14 -51 14 -64 l0 -24 -127 0 c-71 0 -200 -5 -288 -11 -88 -6 -164 -10
-170 -10 -105 13 -102 13 -121 -11 -10 -13 -33 -30 -51 -37 -17 -7 -34 -19
-37 -28 -8 -20 10 -50 34 -58 18 -6 20 -15 20 -108 0 -149 2 -144 -88 -152
-104 -9 -332 -34 -359 -40 -13 -3 -23 -14 -25 -27 -2 -19 -28 -34 -143 -84
-233 -103 -270 -122 -323 -164 -50 -39 -82 -84 -82 -114 0 -8 11 -27 24 -43
l25 -29 -86 -17 c-104 -20 -135 -38 -131 -75 5 -41 62 -53 274 -59 l180 -5 0
-377 c-1 -207 -5 -382 -9 -388 -6 -10 -89 -13 -355 -13 -467 -1 -729 -13 -863
-40 l-105 -22 -38 26 c-45 30 -119 35 -166 11 -43 -22 -80 -94 -110 -214 -10
-38 -14 -43 -36 -38 -20 3 -28 -2 -40 -25 -14 -28 -14 -30 15 -57 56 -52 53
-69 -49 -341 -174 -462 -457 -975 -769 -1395 -44 -60 -81 -113 -81 -118 0 -5
9 -16 20 -25 20 -17 20 -17 -10 -111 -35 -108 -37 -155 -11 -195 l19 -29 -59
-120 c-33 -67 -61 -122 -63 -124 -2 -2 -146 -8 -322 -13 -175 -6 -403 -15
-506 -20 l-187 -9 -43 24 c-24 14 -56 25 -73 25 -47 0 -112 -35 -129 -69 -28
-53 -20 -95 37 -188 l31 -53 208 0 c186 0 208 2 208 16 0 14 9 16 68 10 231
-21 1071 -27 2922 -22 2396 7 1838 7 4289 1 1931 -5 2043 -4 2037 12 -4 9 -10
36 -13 60 -3 24 -9 43 -12 43 -4 0 -16 6 -26 14 -16 11 -11 12 36 5 30 -4 87
-14 127 -23 114 -25 307 -46 419 -46 l103 0 0 -35 0 -35 11530 0 c9802 0
11536 2 11564 14 39 16 73 67 81 121 8 51 -27 122 -72 148 -37 21 -155 32
-480 43 l-202 7 -31 -26 c-17 -14 -47 -29 -67 -33 -95 -18 -453 16 -618 58
-40 11 -252 11 -1076 4 l-1027 -9 -38 38 c-23 23 -33 40 -26 43 7 2 12 16 12
31 0 21 -9 32 -37 49 l-38 22 65 0 c121 0 166 56 95 119 -50 44 -157 70 -463
112 -102 14 -116 11 -142 -34 -23 -41 -2 -73 62 -91 29 -9 100 -29 158 -45
l105 -29 -135 -2 c-210 -2 -260 -19 -260 -91 0 -31 34 -69 62 -69 13 0 18 -8
18 -25 l0 -25 -181 0 c-169 0 -181 1 -174 18 40 91 -10 162 -113 162 -21 0
-56 9 -77 20 -63 32 -179 41 -695 50 -464 8 -596 16 -1115 61 -126 10 -263 22
-303 26 -82 7 -112 -8 -112 -57 0 -51 16 -58 185 -90 88 -17 165 -32 170 -34
6 -3 -25 -5 -68 -5 -43 -1 -86 3 -95 8 -10 5 -171 12 -359 17 l-341 7 -26 -26
c-37 -37 -37 -107 0 -136 l27 -21 -65 0 -65 0 5 30 c6 40 -20 77 -59 85 -22 5
-28 10 -20 18 26 26 10 35 -76 41 -247 19 -394 44 -603 100 -154 42 -305 61
-476 61 -141 0 -164 -7 -164 -50 0 -12 7 -29 17 -36 14 -12 11 -15 -28 -20
-24 -4 -78 -3 -119 2 -41 5 -149 13 -240 19 -91 6 -199 14 -241 17 -72 5 -76
4 -82 -16 -3 -14 -13 -21 -30 -21 -26 0 -37 -16 -37 -55 0 -32 27 -45 93 -45
49 0 55 -2 61 -24 7 -27 39 -42 111 -51 87 -11 90 -14 40 -41 l-46 -24 -439 0
-439 0 -3 32 c-4 40 -24 47 -175 55 -62 3 -113 9 -113 12 0 3 12 13 28 21 25
15 34 14 102 -2 106 -25 258 -24 337 2 67 23 103 51 103 80 0 24 -26 50 -50
50 -10 0 -20 6 -23 14 -11 29 -101 39 -278 31 -93 -4 -169 -4 -169 0 0 4 8 35
17 71 l17 64 36 -5 c170 -25 343 -21 377 6 24 20 16 57 -16 74 -50 25 -135 43
-238 50 -125 8 -123 8 -114 42 l7 27 150 1 c165 1 230 15 272 61 27 31 27 39
1 65 -21 21 -27 22 -200 15 -174 -7 -179 -7 -179 13 0 16 9 21 58 26 137 16
222 45 222 75 0 16 -31 40 -51 40 -15 0 -19 5 -15 18 11 35 -9 44 -123 55
-141 14 -166 7 -166 -46 0 -35 -2 -37 -35 -42 -19 -3 -48 -8 -63 -10 -33 -6
-35 -10 23 93 32 59 49 80 60 76 73 -27 218 -23 259 8 43 32 71 63 71 79 0 34
-80 78 -175 95 -36 7 -31 8 58 20 108 14 150 34 168 76 16 40 -1 75 -47 94
-27 11 -34 18 -25 27 18 18 13 42 -14 67 -19 18 -36 23 -81 24 l-56 0 6 45 c3
24 8 46 10 48 2 3 30 11 63 20 66 17 119 46 133 74 21 38 -24 79 -88 79 l-27
0 25 13 c31 16 38 46 14 64 -17 12 -16 13 7 14 13 1 51 0 84 -1 49 -1 64 2 83
20 37 35 25 78 -31 107 -37 20 -155 22 -201 4 -16 -6 -31 -10 -33 -7 -2 2 3
21 12 42 10 22 20 82 24 139 l6 100 100 -1 c55 -1 339 -6 630 -12 292 -6 719
-11 950 -12 l420 0 -37 -30 c-41 -34 -63 -87 -55 -130 6 -30 -5 -40 -44 -40
-10 0 -19 -2 -19 -5 0 -2 20 -36 45 -74 37 -57 54 -74 91 -90 25 -12 59 -32
76 -46 27 -23 38 -25 123 -25 l94 0 11 43 c31 121 72 187 129 213 35 15 81 67
81 92 0 6 -14 27 -31 47 l-31 35 383 -2 c211 -1 340 -4 287 -7 l-98 -6 65 -33
c67 -35 79 -52 77 -111 -1 -27 7 -41 42 -76 24 -23 50 -59 57 -80 l14 -38 70
6 c38 3 102 13 142 23 l71 17 54 96 c29 53 54 98 56 102 1 3 -13 29 -31 56
l-34 51 1266 -2 c1302 -1 1710 8 1806 40 21 7 40 12 41 11 1 -1 36 -96 79
-210 95 -259 399 -1026 510 -1287 59 -139 106 -270 160 -455 43 -143 83 -272
91 -287 19 -36 43 -48 97 -48 79 0 134 68 121 150 -5 33 -2 44 20 70 14 18 29
43 32 57 5 17 -22 112 -89 311 -53 158 -130 393 -172 522 -167 516 -315 881
-602 1495 -44 94 -83 185 -86 203 -12 58 -39 102 -85 138 -49 37 -78 42 -122
19 -41 -21 -110 -111 -110 -142 l0 -26 -97 6 c-286 19 -900 28 -1668 25 l-860
-3 -26 190 c-15 105 -32 228 -38 275 -7 47 -14 101 -17 121 -6 34 -5 36 38 48
75 23 128 53 143 80 8 17 13 57 13 104 -1 43 1 79 3 81 6 6 319 46 358 46 17
0 58 -13 89 -29 108 -54 184 -69 243 -46 14 5 17 -13 22 -162 8 -238 52 -585
82 -644 26 -48 110 -54 131 -9 50 105 52 115 68 320 19 243 22 631 5 663 -17
31 -51 56 -76 57 -12 0 -25 4 -28 10 -3 6 0 10 8 10 22 0 69 58 101 125 43 86
66 186 72 310 l6 110 53 55 c111 116 136 174 95 218 -26 27 -64 28 -121 3
l-44 -20 -11 50 c-13 55 -18 64 -51 73 -17 5 -29 0 -48 -18 -14 -14 -30 -26
-34 -26 -24 0 -40 -40 -43 -105 l-3 -69 -90 -38 c-179 -77 -328 -108 -510
-108 -83 0 -116 4 -132 15 -14 10 -58 18 -120 22 -84 5 -96 4 -87 -8 6 -8 17
-30 23 -50 l11 -35 155 -29 c217 -40 264 -71 273 -180 5 -64 4 -64 114 -36 88
23 166 60 223 106 22 18 50 35 63 39 l23 8 -17 -34 c-40 -77 -90 -147 -151
-209 -75 -77 -78 -77 -188 -18 -103 55 -274 110 -365 116 -93 7 -125 -5 -202
-76 l-56 -52 -26 26 c-29 29 -64 32 -106 10 -40 -21 -53 -49 -46 -100 l7 -42
-83 -6 c-46 -4 -137 -9 -204 -13 l-120 -7 -11 29 c-6 16 -14 42 -18 58 -10 45
-67 94 -119 101 -99 15 -167 -42 -174 -146 l-4 -59 -97 0 c-53 0 -112 -3 -132
-6 -36 -6 -36 -6 -43 35 -8 53 -69 117 -120 127 -50 9 -100 -3 -135 -31 l-29
-25 -7 52 c-4 29 -13 66 -21 82 -8 16 -14 30 -14 32 0 1 314 4 698 7 569 3
723 7 840 21 203 24 215 27 226 59 6 17 6 37 0 55 -8 24 -17 28 -79 39 -142
23 -317 36 -590 42 -298 6 -1807 -3 -2012 -13 l-122 -6 -6 58 c-6 49 -29 155
-51 229 l-6 22 88 -25 c216 -61 304 -71 716 -84 452 -14 1151 5 1528 43 18 1
24 -2 21 -13 -14 -60 -13 -102 5 -121 48 -53 128 -64 184 -26 53 35 84 107 87
197 1 41 5 87 8 102 5 19 2 36 -9 53 -14 21 -24 25 -66 25 -27 0 -51 4 -55 9
-10 17 -108 44 -184 50 l-75 6 -13 110 c-16 148 -49 312 -67 340 -15 23 -14
24 23 30 46 8 95 52 111 100 7 22 21 37 41 45 17 7 39 29 51 49 11 20 48 55
82 78 94 64 174 141 283 271 162 193 202 279 159 338 -13 17 -12 22 7 42 l22
24 -60 -3 c-33 -1 -67 -8 -75 -15 -8 -7 -58 -52 -111 -99 l-96 -85 -89 14
c-61 9 -107 23 -148 45 -32 17 -64 31 -71 31 -8 0 -16 3 -18 8 -3 4 36 5 86 4
217 -8 422 62 550 190 49 49 58 77 32 98 -13 11 -34 4 -123 -38 -220 -103
-374 -144 -542 -144 -127 -1 -221 18 -332 68 -46 20 -94 37 -108 38 -20 1 -25
6 -22 26 1 14 5 48 8 77 9 73 -26 134 -91 159 -35 13 -44 21 -39 33 30 74 47
137 51 197 5 64 3 74 -16 93 -21 21 -28 22 -119 15 -124 -8 -148 -22 -195
-112 -54 -101 -87 -143 -179 -219 -46 -39 -89 -81 -96 -95 -14 -25 -15 -25
-199 -32 -101 -4 -190 -9 -196 -11 -21 -7 -57 63 -57 111 0 35 -6 51 -27 72
-20 20 -27 38 -28 67 -2 72 -60 125 -138 125 -36 0 -87 -32 -87 -54 0 -8 -13
-16 -28 -19 -37 -8 -79 -51 -88 -90 -3 -18 -17 -45 -30 -60 -13 -15 -26 -42
-29 -60 -4 -18 -17 -45 -30 -61 l-23 -28 -98 10 c-55 6 -136 14 -181 17 -74 6
-85 10 -122 42 -23 19 -41 43 -41 53 0 20 -38 53 -51 44 -4 -2 -49 43 -100
101 -82 94 -95 105 -125 105 -33 0 -74 -36 -74 -65 0 -8 -13 -13 -36 -12 -38
1 -64 -21 -64 -54 0 -10 -13 -31 -30 -47 -32 -32 -36 -51 -20 -83 14 -25 0
-25 -42 1 -40 24 -61 25 -78 5 -11 -14 -7 -25 26 -73 22 -31 45 -69 52 -84 6
-16 18 -28 26 -28 7 0 51 -28 97 -62 47 -35 106 -74 131 -88 42 -22 48 -30 57
-69 13 -59 1 -81 -44 -81 -23 0 -39 -7 -52 -24 -11 -13 -34 -27 -52 -31 -25
-5 -32 -11 -29 -28 2 -13 13 -23 28 -27 20 -5 27 -16 38 -55 12 -49 11 -52
-25 -125 -38 -74 -39 -75 -132 -127 -52 -29 -154 -79 -227 -112 -130 -59 -420
-164 -435 -159 -7 3 66 117 90 141 5 5 24 11 42 13 19 3 50 9 69 14 l35 8 -35
2 c-19 1 -45 5 -57 8 -21 7 -20 9 24 72 183 263 327 500 388 638 22 50 26 69
19 89 -22 62 -73 55 -124 -16 -32 -46 -35 -47 -45 -27 -22 44 -80 33 -115 -24
-14 -22 -32 -43 -41 -45 -28 -9 -93 -87 -139 -166 -24 -41 -78 -127 -121 -191
-43 -65 -103 -162 -132 -216 -29 -53 -85 -138 -124 -188 -55 -69 -71 -96 -66
-112 6 -24 32 -29 51 -10 17 17 14 -3 -3 -26 -12 -15 -24 -18 -72 -14 l-57 5
-186 -105 c-318 -179 -736 -426 -837 -494 -50 -34 -57 -34 -70 -5 -13 28 -84
113 -181 217 l-69 74 33 48 c18 26 38 65 45 85 14 43 18 177 6 241 -6 34 -4
42 8 42 14 0 14 31 -1 78 -4 13 -50 17 -58 4 -3 -5 -19 -7 -35 -4 -22 3 -36
-2 -55 -21 -14 -15 -26 -34 -26 -44 -1 -12 -23 -29 -68 -51 -37 -18 -98 -57
-137 -87 -38 -30 -104 -68 -145 -86 -177 -74 -450 -120 -724 -120 l-154 0 -29
30 c-35 34 -70 45 -214 65 -158 22 -255 59 -396 150 -83 53 -121 66 -187 66
-65 0 -114 -28 -123 -70 -4 -22 -11 -30 -27 -30 -27 0 -46 -18 -46 -42 0 -21
87 -201 118 -246 17 -23 20 -36 14 -49 -17 -32 3 -60 48 -68 l41 -7 -37 -66
c-61 -112 -157 -241 -264 -355 -8 -9 -63 13 -57 22 39 70 72 203 70 291 -2
110 -28 251 -48 267 -42 30 -74 17 -149 -60 -39 -41 -101 -95 -138 -121 -73
-51 -106 -58 -221 -42 -66 9 -66 16 -1 31 l45 10 -102 75 c-56 41 -125 95
-154 120 -28 25 -77 67 -108 93 -84 71 -93 140 -25 189 l31 21 -6 86 c-6 91
-25 157 -49 175 -8 6 -18 21 -22 34 -12 37 -46 62 -86 62 -37 0 -37 -1 -100
-117 -92 -172 -104 -187 -184 -237 -91 -56 -243 -136 -259 -136 -7 0 -17 -15
-22 -32 -8 -27 -18 -36 -57 -49 -26 -8 -55 -22 -65 -31 -11 -9 -50 -19 -98
-24 -85 -9 -638 -8 -691 1 -30 5 -32 9 -44 68 -7 34 -12 89 -11 122 2 71 -23
121 -65 131 -15 4 -35 15 -45 25 -22 22 -48 24 -74 6 -17 -13 -17 -15 4 -36
16 -16 20 -28 15 -49 -10 -40 -12 -42 -48 -42 -19 0 -40 -8 -49 -18 -19 -20
-36 -91 -37 -146 l0 -39 -82 7 c-46 4 -137 14 -203 22 -198 24 -283 28 -298
16 -7 -6 -38 -11 -68 -11 -30 0 -101 -11 -159 -24 -58 -14 -107 -21 -110 -17
-12 16 -108 40 -165 40 -59 0 -66 3 -131 50 -38 28 -66 50 -62 50 5 0 66 -22
159 -58 22 -9 19 -3 -20 36 -26 26 -57 68 -70 94 -14 30 -36 56 -59 70 -49 30
-151 126 -168 160 -8 15 -11 39 -8 55 5 25 0 32 -34 54 -35 23 -40 24 -49 10
-8 -12 -24 -15 -69 -14 -32 2 -66 1 -75 -2 -61 -20 -50 -263 18 -401 24 -49
25 -56 12 -81 -8 -14 -27 -35 -44 -45 -16 -10 -24 -18 -17 -18 23 0 12 -18
-53 -83 -62 -63 -67 -66 -189 -106 -69 -23 -157 -55 -195 -71 -62 -25 -71 -27
-90 -13 -12 8 -21 25 -21 38 0 19 -12 29 -63 53 -74 34 -125 77 -178 148 -35
48 -38 55 -28 83 13 36 6 61 -15 61 -8 0 -28 14 -44 30 -17 17 -39 30 -50 30
-48 0 -116 -113 -134 -222 -22 -133 28 -275 134 -379 39 -38 55 -61 46 -64 -7
-2 -50 -18 -96 -35 -46 -16 -85 -30 -87 -30 -2 0 -48 80 -104 179 -97 171
-101 181 -101 239 0 64 -46 299 -62 320 -23 27 -58 12 -121 -51 -83 -84 -121
-110 -192 -131 -33 -10 -112 -41 -175 -69 -63 -27 -139 -58 -169 -68 -30 -11
-62 -26 -71 -34 -38 -35 -586 -25 -1137 21 l-71 6 -45 76 c-56 95 -176 246
-200 250 -10 2 -19 -4 -23 -15 -3 -10 -12 -30 -20 -45 -16 -30 -19 -140 -4
-168 7 -14 5 -24 -11 -42 l-20 -23 4 83 c4 68 2 92 -14 128 -22 48 -52 64 -88
44 -17 -9 -21 -20 -21 -61 0 -28 -7 -76 -16 -107 -28 -102 -66 -216 -89 -267
-95 -212 -108 -248 -95 -268 10 -17 6 -25 -36 -68 -26 -26 -57 -50 -70 -53
-16 -4 -31 -22 -45 -51 -12 -25 -27 -45 -33 -45 -22 0 -44 25 -51 58 l-7 32
49 0 c53 0 104 25 123 61 7 13 10 45 8 76 -6 69 -31 96 -117 124 -64 22 -141
57 -141 65 0 2 20 28 44 58 58 72 96 152 103 218 5 50 3 56 -21 75 -18 15 -26
30 -26 52 0 58 -24 99 -67 111 -56 17 -87 1 -118 -60 -31 -62 -81 -99 -185
-140 l-79 -30 -50 26 c-38 20 -65 27 -107 26 -51 0 -60 3 -98 37 -77 68 -70
67 -117 17 -23 -25 -47 -46 -53 -46 -12 0 -15 6 -138 234 -70 132 -88 158
-154 218 -139 131 -236 290 -256 424 -5 38 -19 103 -29 145 -10 41 -19 92 -19
113 0 20 -5 47 -11 58 -8 16 -8 31 0 59 9 29 9 44 1 60 -11 19 -18 20 -98 15
-66 -4 -91 -10 -102 -23 -23 -27 -127 -93 -171 -109 -22 -7 -56 -30 -76 -51
-35 -37 -55 -35 -35 4 5 10 13 41 17 70 6 47 5 52 -15 58 -15 5 -19 12 -14 23
19 48 20 91 2 148 -19 57 -19 63 -2 171 18 121 14 181 -13 200 -27 21 -77 16
-100 -9z m17844 -684 c3 -9 -76 -64 -93 -64 -5 0 5 9 23 19 17 11 34 29 38 41
7 21 26 23 32 4z m408 -24 c3 -5 2 -10 -4 -10 -5 0 -13 5 -16 10 -3 6 -2 10 4
10 5 0 13 -4 16 -10z m-17835 -90 c0 -10 -12 -31 -26 -45 -31 -31 -29 -41 38
-154 27 -47 68 -137 90 -200 82 -235 166 -378 262 -451 47 -34 60 -54 134
-190 22 -41 56 -103 75 -137 20 -35 34 -63 31 -63 -2 0 -42 15 -87 34 -59 23
-128 65 -235 142 -83 60 -195 133 -249 162 l-98 53 -85 131 c-47 72 -129 198
-183 280 -91 140 -96 151 -80 164 10 8 74 51 143 97 69 46 141 101 160 121 34
37 87 76 103 76 4 0 7 -9 7 -20z m15667 -130 c11 0 26 7 33 15 21 25 64 18 88
-15 l22 -29 -35 -7 c-20 -3 -34 -9 -31 -11 3 -3 51 -14 108 -25 95 -18 118
-18 298 -7 195 12 195 12 340 -16 80 -15 174 -29 210 -31 36 -1 123 -10 195
-18 98 -12 231 -16 547 -16 372 0 418 -2 433 -16 14 -15 37 -16 183 -10 92 3
182 9 200 12 42 8 40 -5 -7 -38 -44 -31 -153 -53 -336 -68 -182 -14 -296 -30
-319 -42 -18 -11 -13 -14 50 -21 58 -7 90 -5 168 12 l96 20 51 -31 c39 -25 47
-33 35 -40 -18 -10 -15 -10 -221 0 -108 6 -160 12 -188 25 -35 16 -47 16 -190
2 -83 -8 -318 -26 -522 -40 -203 -14 -428 -32 -500 -40 -125 -14 -131 -14
-149 5 -24 24 -25 78 -2 96 10 7 50 18 89 24 129 20 120 29 -30 29 -80 1 -153
6 -166 12 -40 18 -85 -12 -99 -66 l-12 -44 -42 6 c-35 4 -45 2 -60 -16 -12
-14 -30 -21 -54 -21 -33 0 -38 5 -93 91 -103 159 -116 215 -62 257 33 27 16
52 -35 52 -22 0 -40 2 -40 4 0 2 -3 13 -7 23 -6 17 -6 17 14 1 11 -10 29 -18
40 -18z m2053 -20 l55 -18 -184 -1 c-194 -1 -229 10 -86 27 119 14 154 13 215
-8z m-19995 -117 c6 -22 4 -23 -54 -23 -34 0 -61 2 -61 5 0 9 95 53 101 47 4
-4 10 -17 14 -29z m-1734 -197 c37 -35 93 -83 123 -106 65 -49 67 -64 4 -27
-115 68 -184 125 -195 161 -6 20 -9 36 -6 36 3 0 36 -29 74 -64z m3059 35
c-38 -71 33 -112 131 -77 l37 13 6 -51 c4 -28 10 -61 13 -73 5 -23 4 -23 -108
-23 -62 0 -197 -7 -299 -15 -102 -8 -387 -26 -635 -40 -247 -14 -592 -34 -765
-46 -217 -15 -345 -19 -412 -14 l-98 7 0 30 c0 19 -10 40 -27 57 -26 27 -63
82 -63 95 0 3 14 6 31 6 54 0 206 44 318 92 41 17 50 18 150 4 235 -32 392
-41 756 -41 242 0 406 4 475 13 141 17 326 50 381 67 24 7 61 14 82 14 34 1
37 -1 27 -18z m10339 -316 c-16 -83 -32 -157 -35 -167 -3 -11 -19 -17 -57 -20
-29 -2 -54 -3 -55 -2 -2 1 14 26 36 56 41 55 74 114 87 158 16 52 47 131 51
128 2 -2 -10 -71 -27 -153z m-3209 47 c3 -3 -5 0 -17 7 -12 6 -33 11 -47 11
-19 0 -26 5 -26 19 0 11 -3 28 -7 38 -5 14 30 -13 97 -75z m9258 -81 c10 -6 8
-10 -10 -14 -38 -11 -58 -8 -58 8 0 17 46 21 68 6z m476 -198 c9 -170 30 -337
55 -428 11 -38 19 -70 18 -71 -11 -8 -57 -12 -61 -6 -19 31 -66 436 -66 575 0
64 1 67 24 67 23 0 24 -1 30 -137z m1395 118 c16 -16 25 -17 72 -9 30 5 62 14
73 20 11 6 44 7 81 3 53 -5 62 -9 58 -24 -2 -10 3 -23 11 -30 9 -8 16 -20 16
-27 0 -9 12 -13 36 -12 52 2 85 -35 93 -104 5 -45 7 -36 11 59 3 61 8 114 11
117 3 3 42 3 87 -1 l81 -6 -28 -28 c-34 -34 -43 -72 -30 -125 14 -54 36 -334
27 -340 -4 -3 -30 -8 -57 -11 l-50 -6 -7 40 c-6 37 -10 41 -55 57 -48 18 -89
55 -89 82 0 19 -10 17 -39 -5 -23 -18 -24 -22 -18 -100 l6 -81 -108 0 -108 0
5 54 c4 48 1 57 -20 78 -13 13 -33 28 -43 34 -17 9 -19 26 -23 135 l-4 124
-107 -7 c-58 -4 -203 -19 -321 -32 -118 -14 -244 -28 -280 -32 -55 -5 -69 -11
-96 -38 -61 -61 -68 -169 -18 -276 13 -29 23 -54 22 -55 -2 -2 -60 -8 -129
-14 -70 -6 -134 -13 -142 -17 -12 -4 -17 3 -22 28 l-6 34 -63 -4 c-57 -4 -65
-2 -80 19 -9 13 -16 38 -16 55 0 17 -12 92 -26 167 -14 75 -24 158 -22 184 3
43 6 50 37 65 19 9 41 24 50 33 13 13 88 15 613 15 572 0 599 -1 617 -19z
m-1614 -238 c4 -82 11 -191 15 -243 4 -57 4 -105 -2 -120 -17 -44 16 -314 41
-329 11 -7 33 -155 25 -175 -3 -7 -1 -17 5 -21 19 -11 12 -36 -14 -57 -14 -11
-25 -30 -25 -43 0 -12 -12 -49 -27 -81 -23 -51 -25 -62 -15 -98 6 -23 10 -42
8 -43 -1 -1 -67 -3 -146 -4 -115 -1 -146 2 -148 12 -1 8 11 22 28 31 24 14 30
24 30 50 0 32 4 35 103 86 l102 53 -100 -6 c-55 -3 -154 -10 -220 -17 -115
-11 -122 -10 -161 10 -106 55 -107 245 -1 326 19 14 39 26 45 26 15 0 16 17 2
25 -5 3 -10 30 -10 59 0 71 -15 90 -68 84 -35 -3 -43 0 -53 19 -16 31 -62 31
-83 1 -20 -29 -20 -103 0 -193 14 -61 20 -212 9 -223 -2 -2 -27 4 -55 13 -43
14 -61 29 -117 96 -36 43 -96 122 -132 176 -65 96 -67 98 -108 101 -38 3 -43
0 -57 -26 -13 -25 -13 -36 -2 -78 8 -27 17 -57 21 -66 5 -14 2 -18 -12 -18
-10 0 -29 -7 -41 -16 -19 -13 -28 -14 -52 -4 -41 17 -73 9 -87 -22 -18 -37 -9
-52 51 -84 34 -19 98 -76 180 -161 71 -73 125 -133 120 -133 -31 -1 -240 -34
-349 -56 -349 -69 -619 -151 -916 -277 -96 -41 -175 -74 -176 -73 -1 0 -3 134
-4 295 l-2 295 279 124 c153 68 347 148 429 178 225 83 508 196 715 287 206
89 653 313 744 371 48 30 190 93 217 95 4 1 10 -65 14 -146z m-1545 62 c0 -8
-556 -279 -602 -294 -21 -7 -40 -17 -44 -22 -3 -5 -77 -45 -165 -89 -101 -51
-164 -89 -175 -105 -21 -32 -38 -32 -52 1 -12 25 -11 26 80 68 122 57 780 386
838 420 40 23 120 37 120 21z m-13025 -55 c-3 -5 -12 -10 -20 -10 -8 0 -17 5
-20 10 -4 6 5 10 20 10 15 0 24 -4 20 -10z m-4268 -51 c68 -31 142 -34 299
-13 195 26 647 24 1029 -5 154 -12 381 -26 505 -32 183 -9 228 -15 242 -28 16
-14 17 -35 11 -218 l-6 -203 -221 -1 c-299 -2 -464 -7 -477 -14 -17 -11 -60
24 -75 61 l-15 35 -28 -21 c-37 -25 -65 -26 -91 0 -38 38 -27 67 59 150 52 52
80 88 84 108 l6 30 -72 6 c-72 6 -529 43 -619 49 l-48 4 0 -180 0 -181 33 -34
32 -34 -31 4 c-30 4 -32 2 -38 -30 -7 -44 -32 -72 -65 -72 -19 0 -42 16 -79
55 -39 41 -60 55 -80 55 -16 0 -33 5 -40 12 -8 8 -15 8 -25 0 -7 -7 -30 -14
-49 -16 -20 -3 -47 -16 -61 -30 -32 -32 -60 -33 -88 -5 -19 19 -32 22 -100 20
l-78 -2 6 35 c5 31 1 41 -30 75 -47 52 -62 108 -47 172 7 27 16 52 21 55 5 3
2 19 -7 37 -20 37 -22 123 -5 155 16 29 85 30 148 1z m12428 -84 c29 -28 31
-51 10 -82 -14 -21 -14 -21 25 -16 37 5 44 2 96 -43 131 -114 311 -242 411
-292 22 -12 56 -35 74 -51 21 -20 52 -34 86 -41 29 -6 55 -15 58 -19 9 -15
-447 -20 -2725 -30 -1262 -6 -2383 -13 -2491 -16 -108 -3 -203 -3 -212 1 -10
3 -17 16 -17 28 0 20 12 26 103 51 56 15 194 59 307 97 113 38 248 79 300 93
52 13 129 36 170 50 41 14 129 42 195 61 66 20 153 51 194 70 l75 34 135 -14
c75 -8 152 -20 171 -26 49 -14 51 -13 32 20 -16 27 -16 32 -1 57 18 34 31 33
124 -2 109 -41 209 -64 345 -76 69 -6 136 -15 150 -20 l25 -9 -25 4 c-24 5
-412 9 -495 5 -59 -2 130 -34 317 -53 376 -38 1281 -55 1501 -27 174 21 177
29 12 31 -82 1 -158 5 -168 8 -11 5 23 14 90 26 59 10 176 35 258 56 105 26
182 39 258 44 151 8 295 31 445 70 70 18 131 34 135 35 4 0 19 -10 32 -24z
m-5165 -26 c0 -19 -4 -21 -31 -15 -17 3 -39 6 -48 7 -16 0 44 26 67 28 6 0 12
-9 12 -20z m-4406 0 l179 -12 329 -204 c337 -209 927 -560 1171 -697 l137 -77
0 -220 c0 -131 -4 -219 -9 -219 -36 0 -238 47 -351 81 -184 55 -361 122 -640
241 -129 56 -236 102 -237 103 -2 1 2 17 7 35 15 52 -3 99 -58 153 -56 55 -99
71 -153 57 -38 -10 -89 -60 -89 -86 0 -8 -3 -14 -6 -14 -3 0 -87 41 -186 91
-194 98 -342 159 -383 159 -42 0 -85 -50 -85 -99 0 -33 6 -46 35 -74 l34 -33
-92 22 c-51 13 -108 26 -127 29 l-35 5 0 172 c0 95 -4 269 -8 386 l-8 212 198
0 c109 0 279 -5 377 -11z m12886 -92 c25 -40 54 -89 65 -110 22 -44 67 -85
108 -100 l29 -10 -31 -20 c-35 -21 -39 -52 -10 -70 12 -8 30 -5 68 12 33 14
60 19 74 15 19 -6 15 -10 -28 -32 -45 -23 -62 -26 -155 -25 -62 0 -128 6 -162
16 -54 14 -60 14 -95 -4 -24 -12 -58 -19 -96 -19 -32 0 -111 -13 -176 -30
-185 -46 -364 -73 -441 -65 -36 4 -318 8 -628 9 -309 0 -562 4 -562 8 0 4 9 9
20 13 20 6 160 152 160 167 0 4 15 8 34 8 62 0 116 75 116 162 0 25 8 52 18
65 16 19 22 20 82 12 132 -19 396 -27 575 -17 99 5 203 6 230 3 83 -11 427 -6
465 6 19 6 44 20 55 29 17 16 153 44 225 48 8 0 35 -32 60 -71z m-8471 -54
c-1 -10 5 -33 13 -52 9 -20 14 -50 11 -70 -3 -20 -1 -60 5 -89 9 -52 9 -54
-17 -63 -18 -8 -32 -7 -45 1 -16 10 -25 5 -67 -36 -37 -36 -47 -53 -43 -69 12
-50 31 -49 -863 -57 l-835 -8 -76 37 c-68 34 -83 38 -154 38 -43 0 -78 2 -78
5 0 3 22 28 48 56 44 46 54 51 128 68 105 24 111 27 36 20 l-63 -6 27 28 c14
16 39 52 55 80 l29 51 45 -8 c112 -21 407 -40 893 -59 272 -10 632 0 703 20
40 11 83 51 98 92 8 22 17 27 53 31 96 8 99 8 97 -10z m-6597 -6 c51 -11 63
-19 114 -75 57 -64 148 -132 194 -147 14 -5 52 -11 85 -15 48 -6 34 -8 -72 -9
-72 0 -138 -4 -147 -7 -10 -4 -20 5 -30 31 -21 49 -48 81 -137 155 -41 35 -78
67 -83 72 -13 11 6 9 76 -5z m358 -87 c11 -22 18 -40 16 -40 -8 0 -126 71
-126 75 0 3 20 5 45 5 42 0 46 -2 65 -40z m-1040 -400 c377 -4 999 -10 1382
-11 l698 -4 0 -52 0 -51 -137 -5 c-259 -10 -1118 -27 -1868 -37 -412 -5 -762
-12 -777 -15 l-27 -5 -3 92 c-2 51 -2 97 0 101 3 5 14 6 26 2 11 -4 329 -10
706 -15z m19418 -185 c1 -1 -11 -31 -27 -65 -17 -35 -38 -94 -48 -132 l-17
-68 -46 5 c-25 2 -89 7 -142 11 -54 3 -98 7 -98 8 0 2 23 41 51 87 27 46 56
104 62 127 l12 44 125 -7 c69 -4 126 -8 128 -10z m320 -17 c-45 -26 -51 -39
-73 -160 -19 -97 -19 -98 -48 -98 -23 0 -28 4 -23 16 20 52 28 114 24 184 l-5
80 81 0 81 0 -37 -22z m182 15 c0 -4 -8 -17 -18 -29 l-17 -20 -28 26 -28 26
46 3 c25 1 45 -2 45 -6z m-3778 -54 c-2 -24 -12 -116 -22 -204 -11 -88 -24
-220 -30 -294 -6 -74 -13 -139 -17 -144 -6 -11 -198 -3 -298 12 -33 5 -500 10
-1038 10 l-978 1 12 22 c7 14 9 47 5 97 l-7 76 48 25 c43 23 48 29 51 63 4 52
-19 77 -70 77 -25 0 -38 4 -38 14 0 7 -3 33 -6 57 l-6 44 843 0 c885 0 918 1
1123 46 127 28 295 84 320 108 21 19 81 41 101 37 5 -1 8 -22 7 -47z m-17414
-55 c34 -3 62 -9 62 -13 0 -7 -125 -101 -135 -101 -10 0 -45 83 -45 109 0 20
4 23 28 18 15 -3 55 -9 90 -13z m7147 -24 c132 -5 531 -10 886 -10 356 -1 649
-3 650 -5 2 -2 3 -40 1 -84 -3 -80 -4 -81 -30 -81 -39 0 -94 -17 -104 -32 -4
-7 -8 -27 -8 -45 0 -41 21 -53 94 -53 l55 0 6 -47 c4 -27 11 -64 16 -83 19
-75 87 -67 -688 -73 -805 -6 -1281 -29 -1488 -73 -132 -29 -138 -28 -180 1
-22 14 -66 34 -98 43 l-59 16 6 35 c3 20 11 95 17 166 6 72 12 131 14 133 1 1
22 -9 46 -22 118 -66 243 -71 355 -16 75 37 127 92 165 176 28 62 30 64 67 64
20 0 145 -5 277 -10z m4500 -20 c517 -6 1406 -17 1975 -25 569 -8 1076 -15
1126 -15 l91 0 6 -50 c11 -91 11 -91 -174 -128 -90 -18 -198 -37 -239 -42
-124 -16 -422 -30 -507 -23 -45 3 -92 3 -106 -1 -33 -8 -43 -40 -24 -70 13
-20 29 -25 119 -35 223 -27 732 -24 877 5 l31 7 0 -69 0 -69 -247 3 c-137 1
-567 7 -958 13 -390 6 -1626 13 -2745 16 l-2035 5 -9 79 c-5 44 -6 82 -4 85 3
3 45 -2 92 -11 113 -21 147 -18 164 17 29 62 -45 119 -186 140 -37 6 -73 12
-79 14 -14 4 -17 64 -7 127 l7 37 946 0 c520 0 1369 -5 1886 -10z m-11132 -58
c-40 -52 -83 -137 -83 -165 0 -10 10 -28 23 -41 l23 -23 -195 -12 c-108 -7
-209 -14 -226 -17 -29 -5 -28 -3 26 48 31 30 97 75 150 103 51 28 110 65 131
83 21 20 39 29 43 22 7 -11 45 -13 70 -4 8 4 22 19 30 35 10 18 21 26 29 23
11 -4 6 -17 -21 -52z m22694 26 c26 -12 24 -13 -41 -16 -75 -3 -82 -1 -72 24
5 13 14 15 46 10 21 -3 51 -12 67 -18z m-22396 -66 c-60 -59 -88 -95 -112
-146 l-32 -68 -36 7 c-20 3 -54 11 -75 16 l-39 11 58 29 c82 41 146 93 206
166 42 50 58 63 81 63 27 0 25 -4 -51 -78z m393 -5 c-53 -55 -125 -147 -129
-163 0 -1 -26 3 -58 8 -56 10 -57 11 -41 29 9 10 42 35 73 56 73 48 81 59 81
105 l0 38 71 0 72 0 -69 -73z m558 11 c-68 -73 -124 -138 -163 -193 -26 -36
-38 -45 -54 -41 -11 3 -41 6 -67 6 -29 0 -48 5 -48 11 0 6 26 34 57 63 122
109 123 110 123 160 l0 46 101 0 101 0 -50 -52z m251 45 c2 -5 -18 -30 -45
-58 l-48 -49 0 36 c0 19 -7 41 -15 48 -8 7 -15 16 -15 21 0 11 117 12 123 2z
m337 -13 c0 -5 -17 -36 -37 -68 -21 -32 -56 -95 -78 -140 l-39 -82 -83 0 c-47
0 -83 4 -83 10 0 17 120 138 168 170 50 33 71 62 72 98 0 19 5 22 40 22 22 0
40 -4 40 -10z m18820 -30 c0 -30 -4 -40 -16 -40 -12 0 -15 6 -10 23 3 12 6 30
6 40 0 9 5 17 10 17 6 0 10 -18 10 -40z m-18235 20 l43 0 -28 -52 c-16 -29
-38 -86 -50 -125 l-22 -73 -65 0 -66 0 7 48 c3 26 20 69 37 97 17 27 33 65 36
83 6 31 8 33 36 28 16 -3 49 -6 72 -6z m515 -27 c0 -5 -9 -19 -19 -32 -17 -23
-19 -23 -50 -6 -22 11 -52 16 -93 14 -48 -2 -62 1 -70 14 -8 16 2 17 112 17
66 0 120 -3 120 -7z m17268 -45 c43 -54 14 -90 -98 -122 -468 -134 -1046 -279
-2125 -533 -258 -60 -962 -238 -1145 -289 l-175 -49 75 -3 c83 -3 100 -12 100
-53 0 -56 -11 -59 -241 -59 -115 0 -209 -2 -209 -5 0 -2 5 -15 11 -29 10 -20
9 -30 -5 -50 -9 -14 -16 -29 -16 -34 0 -5 39 -14 86 -20 48 -7 88 -13 90 -15
2 -1 -3 -21 -10 -42 -8 -22 -17 -62 -21 -89 l-8 -48 -51 6 c-28 4 -73 11 -100
15 l-48 8 4 -69 c6 -80 28 -118 76 -132 40 -11 74 9 101 62 l20 37 1 -132 0
-132 -327 5 c-688 10 -795 14 -787 33 28 64 36 126 23 180 -6 31 -13 108 -13
171 -1 84 -6 125 -19 153 -18 43 -21 40 64 57 36 7 68 21 90 40 l34 29 -107 1
-106 0 -6 -107 c-18 -348 -41 -513 -89 -648 -23 -66 -88 -83 -122 -32 -13 20
-12 31 10 100 13 42 31 119 40 170 17 98 41 478 31 502 -5 13 -59 15 -359 15
l-354 0 -7 -97 c-3 -54 -15 -190 -26 -303 -11 -113 -23 -248 -27 -300 -8 -89
-10 -95 -35 -110 -25 -13 -31 -13 -55 0 -38 21 -39 56 -14 299 22 201 41 432
41 482 l0 29 -939 0 -938 0 -7 -97 c-4 -54 -11 -183 -16 -288 -11 -239 -34
-405 -57 -422 -24 -19 -47 -16 -78 9 -25 20 -27 25 -21 72 23 190 36 347 42
524 l7 202 -2551 0 -2552 0 0 -129 c0 -180 23 -343 66 -469 37 -110 37 -133
-2 -158 -42 -28 -69 -12 -97 60 -61 151 -89 318 -91 538 l-1 158 -72 0 -73 0
0 -94 c0 -90 22 -296 40 -380 7 -34 5 -46 -16 -82 -33 -56 -14 -95 37 -79 13
4 19 1 19 -9 0 -9 -10 -18 -22 -20 -13 -3 -151 -8 -308 -11 -326 -7 -546 -20
-637 -39 -59 -13 -64 -12 -77 5 -11 16 -11 28 2 72 10 35 17 126 21 287 5 196
9 241 24 269 9 19 17 45 17 58 l0 23 -403 0 c-300 0 -406 3 -415 12 -20 20
-15 76 7 88 14 7 1765 10 5575 10 5394 0 5556 1 5556 18 0 11 9 27 19 36 42
38 891 259 1966 511 621 146 1695 422 1714 440 9 10 59 4 69 -7z m-18859 -110
c-16 -29 -29 -61 -29 -70 0 -13 -8 -18 -31 -18 l-30 0 57 70 c32 39 59 70 60
70 1 0 -11 -24 -27 -52z m18201 21 l75 -19 -75 5 c-46 4 -81 11 -90 20 -20 20
-5 19 90 -6z m-20279 -44 c-14 -49 -31 -73 -31 -45 0 6 -9 19 -20 30 -19 19
-19 19 23 44 23 13 43 24 43 25 1 1 -6 -24 -15 -54z m-118 -45 c-4 -16 -13
-20 -47 -19 l-41 0 40 19 c52 24 54 24 48 0z m3962 -190 c228 -24 446 -52 653
-86 201 -32 202 -32 202 7 0 17 3 29 8 27 4 -2 24 -10 45 -18 29 -11 37 -19
37 -40 0 -25 2 -25 183 -58 239 -43 753 -152 1142 -243 171 -39 334 -72 364
-73 73 -3 102 -43 67 -91 -23 -31 -102 -27 -291 17 -1140 262 -1795 382 -2459
448 -144 15 -193 23 -207 36 -39 35 -14 94 39 94 15 0 113 -9 217 -20z m-3547
-35 c81 -41 162 -60 327 -75 66 -7 122 -13 124 -15 2 -3 -2 -39 -8 -82 -7 -43
-18 -157 -24 -253 l-12 -175 -270 -42 c-148 -23 -282 -42 -296 -42 -25 -1 -28
4 -52 97 -20 73 -29 140 -36 272 -10 168 -27 326 -37 342 -3 5 44 8 105 8 105
0 112 -1 179 -35z m957 -125 c77 -6 192 -20 257 -32 112 -21 116 -23 122 -49
6 -30 42 -69 63 -69 7 0 13 -4 13 -8 0 -5 6 -55 14 -113 8 -57 17 -132 21
-166 l6 -63 -73 0 c-122 0 -168 -22 -168 -79 0 -20 -6 -21 -100 -21 l-100 0 0
33 c0 73 -41 93 -213 104 l-107 6 2 239 3 239 60 -6 c33 -3 123 -10 200 -15z
m21673 -187 c16 -238 19 -216 -23 -192 -72 43 -129 51 -361 54 l-220 3 -60
-32 c-32 -17 -64 -42 -71 -56 -18 -35 -16 -101 3 -128 l15 -22 -124 0 -124 0
-7 167 c-3 91 -3 169 1 173 4 4 49 12 98 19 50 6 119 18 155 26 36 8 157 35
270 60 113 25 250 58 305 74 55 16 107 29 116 30 13 1 17 -25 27 -176z
m-20455 -8 c50 -13 128 -40 172 -58 l80 -34 3 -94 c2 -52 0 -122 -3 -156 l-7
-63 -38 0 c-64 0 -180 30 -180 47 0 8 -15 30 -34 49 l-34 34 -99 0 c-54 -1
-146 -9 -205 -19 l-107 -17 -5 35 c-11 74 -29 271 -25 275 2 2 62 -5 133 -16
140 -20 177 -16 211 22 23 25 26 25 138 -5z m19237 -87 l0 -33 -273 -1 -272
-1 125 13 c101 11 380 47 413 53 4 0 7 -14 7 -31z m-617 -66 c-48 -37 -65
-123 -39 -187 l15 -35 -70 0 -71 0 7 68 c14 148 7 136 88 154 95 20 95 20 70
0z m-17242 -32 c16 0 31 -6 34 -12 2 -7 5 -57 8 -110 l4 -98 -432 0 -432 0 -7
53 c-11 94 -8 157 8 157 28 0 181 -53 269 -92 210 -94 321 -117 385 -78 35 22
71 87 72 130 0 14 3 35 6 47 5 18 10 20 31 12 13 -5 38 -9 54 -9z m16889 -15
c0 -13 -5 -57 -11 -98 l-11 -74 -91 -7 c-49 -3 -121 -6 -159 -6 -67 0 -68 0
-81 33 -14 32 -13 32 17 38 62 11 105 52 120 112 l6 27 105 0 c105 0 105 0
105 -25z m-600 -151 c13 -34 13 -34 -15 -34 -20 0 -25 5 -25 23 0 44 25 50 40
11z m-252 -6 c-3 -21 -9 -23 -68 -25 l-65 -2 50 24 c66 31 87 32 83 3z
m-14277 -85 c59 -21 55 -37 -4 -18 -23 8 -73 19 -112 26 -87 15 -95 18 -95 35
0 14 8 17 85 32 38 8 41 7 60 -25 14 -24 33 -39 66 -50z m3179 3 c0 -25 -6
-125 -14 -223 -24 -291 -27 -383 -17 -488 10 -112 3 -141 -35 -155 -33 -13
-61 -5 -75 21 -19 37 -22 259 -5 506 9 133 16 273 16 312 l0 71 65 0 65 0 0
-44z m950 -368 c0 -458 1 -448 -66 -448 -64 0 -64 -2 -64 446 0 220 3 404 7
407 3 4 33 7 65 7 l58 0 0 -412z m1494 365 c-2 -21 -11 -110 -20 -198 -23
-239 -73 -586 -85 -602 -29 -34 -109 1 -109 48 0 11 11 103 25 205 19 143 65
549 65 579 0 3 29 5 64 5 l64 0 -4 -37z m11590 -59 c3 -9 6 -28 6 -44 0 -18 8
-33 25 -44 30 -20 40 -53 26 -89 -7 -18 -7 -36 0 -53 13 -35 -5 -90 -34 -108
-14 -9 -84 -19 -180 -26 -286 -23 -392 5 -389 102 0 18 9 43 19 56 19 25 18
26 -4 48 -37 37 -27 100 20 125 19 11 120 21 186 20 13 -1 29 3 36 9 6 5 54
11 106 13 51 1 113 4 135 5 30 1 44 -2 48 -14z m-21827 -8 c4 -4 -124 -223
-177 -302 l-54 -81 -155 -22 c-86 -12 -185 -23 -221 -24 -62 -2 -65 -1 -79 28
-12 26 -12 39 4 115 10 47 19 114 19 150 1 76 17 106 60 114 17 4 109 11 206
17 96 6 177 12 179 15 4 4 212 -6 218 -10z m1411 -51 c21 -45 13 -74 -52 -208
l-63 -132 -164 0 c-90 0 -195 -2 -234 -4 l-70 -5 -13 75 c-13 72 -13 241 -1
254 4 3 35 1 70 -5 140 -22 345 -7 454 34 55 20 60 20 73 -9z m3982 -5 c102
-5 193 -9 203 -10 12 0 17 -8 17 -26 0 -29 -31 -247 -36 -253 -1 -1 -34 24
-73 57 -96 83 -170 137 -276 200 -73 44 -83 53 -55 48 19 -4 118 -11 220 -16z
m15002 -25 c51 -14 109 -25 128 -25 40 0 171 -32 223 -54 48 -20 71 -56 63
-101 -15 -81 -118 -103 -280 -60 -107 28 -144 26 -243 -11 -25 -10 -53 -14
-68 -10 -72 18 -102 116 -47 154 16 12 28 31 30 47 4 51 35 83 84 84 9 1 59
-10 110 -24z m-3222 -90 c0 -3 -44 -27 -99 -54 -124 -63 -266 -144 -403 -232
-59 -38 -111 -69 -117 -69 -6 0 -9 54 -8 149 l2 149 120 6 c169 9 338 26 420
41 39 7 73 13 78 14 4 0 7 -1 7 -4z m-6198 -88 c20 -23 22 -23 72 -9 174 47
566 3 604 -68 19 -37 12 -264 -8 -284 -30 -28 -55 -27 -101 4 l-45 29 -372 2
c-367 1 -372 1 -387 22 -8 12 -15 43 -15 70 0 42 4 53 32 79 17 16 44 36 59
43 20 11 26 20 22 35 -10 37 6 71 40 85 47 21 76 18 99 -8z m7048 -123 c0 -33
-300 -1192 -353 -1365 -12 -39 -178 -296 -299 -463 -55 -76 -29 -136 59 -136
24 0 43 -1 43 -3 0 -2 -12 -37 -26 -78 -14 -41 -38 -121 -53 -179 l-28 -105
-96 -3 c-111 -3 -105 -9 -82 91 8 35 24 135 35 223 24 194 82 397 135 477 66
100 115 259 115 375 0 26 6 67 13 92 10 36 11 57 1 105 -6 33 -12 54 -13 46
-2 -27 -10 -5 -26 74 -24 115 -37 141 -78 154 -23 8 -42 8 -59 2 -37 -14 -128
-101 -199 -191 -57 -72 -79 -93 -79 -73 0 4 12 19 27 35 14 15 24 30 21 34 -7
7 -105 -40 -129 -62 -10 -9 -26 -12 -46 -8 -48 9 -73 -22 -73 -90 0 -46 3 -56
20 -61 11 -3 20 -11 20 -16 0 -5 -29 -85 -64 -177 -35 -92 -74 -198 -85 -237
-26 -85 -51 -223 -44 -242 3 -8 18 -16 33 -20 22 -4 27 -9 22 -27 -2 -11 -13
-30 -23 -41 -10 -11 -37 -74 -59 -140 -23 -66 -57 -153 -76 -193 -27 -55 -34
-81 -29 -103 5 -22 3 -29 -9 -29 -11 0 -16 10 -16 33 0 26 -6 35 -32 47 -58
27 -58 29 4 282 l57 233 -9 276 c-5 152 -14 341 -21 420 -19 216 -19 212 16
219 55 12 515 281 679 397 67 48 221 106 246 93 30 -16 50 -51 50 -87 l0 -32
25 24 c32 32 79 33 99 3 7 -13 17 -45 21 -73 4 -27 9 -45 11 -40 1 6 24 76 49
157 l46 146 66 18 c47 13 77 28 104 53 40 39 65 106 55 147 -5 19 -2 24 14 24
11 0 20 -3 20 -6z m-20125 -59 c132 -9 305 -20 385 -25 80 -5 269 -14 420 -20
151 -6 294 -13 317 -16 l41 -5 -15 -30 c-20 -41 -11 -96 22 -128 l25 -26 273
-7 c290 -7 361 -2 426 31 50 26 65 52 58 103 l-5 38 91 -5 c51 -2 202 -7 337
-10 135 -3 286 -12 336 -19 77 -12 95 -18 120 -43 34 -35 205 -94 327 -113
183 -30 330 9 372 97 11 23 27 45 35 49 16 9 10 9 1394 25 567 6 969 15 984
20 18 7 39 6 68 -2 40 -12 44 -16 63 -74 11 -34 25 -98 33 -143 7 -45 15 -82
18 -82 3 0 21 30 39 68 18 37 48 92 67 123 24 40 34 69 34 98 0 22 2 41 4 41
2 0 32 -13 67 -29 35 -16 78 -32 95 -35 l31 -7 17 -162 c24 -223 98 -773 151
-1122 24 -159 51 -351 60 -425 19 -158 36 -242 65 -324 11 -33 20 -60 20 -62
0 -6 -66 -14 -190 -24 -69 -6 -150 -14 -180 -20 -30 -5 -81 -12 -112 -16 l-57
-7 2 32 c2 30 3 31 55 31 84 0 115 48 74 115 l-18 29 30 16 c38 18 47 62 19
92 -24 26 -99 64 -157 79 -34 8 -46 16 -46 30 0 25 -57 88 -86 95 -13 3 -24
12 -24 19 0 8 -12 27 -26 44 -22 27 -24 32 -10 37 24 9 49 62 42 90 -5 17 -2
24 7 24 22 0 47 35 54 73 4 30 1 40 -22 61 -25 23 -26 27 -11 41 25 25 31 65
15 94 -12 21 -23 27 -60 29 -45 3 -45 3 -41 37 4 32 7 35 36 35 38 0 73 32 82
76 9 45 -23 77 -109 110 -39 15 -76 31 -82 35 -25 16 -146 50 -163 45 -34 -11
-82 -62 -82 -87 0 -38 11 -47 106 -89 l89 -40 -60 0 c-71 0 -100 -16 -110 -61
-8 -36 10 -86 34 -94 10 -3 27 -19 39 -35 19 -25 20 -30 7 -30 -30 0 -73 -29
-79 -55 -7 -29 15 -79 41 -94 17 -9 17 -10 0 -17 -31 -11 -47 -57 -40 -112 7
-60 9 -65 48 -85 l30 -15 -27 -12 c-36 -17 -55 -63 -41 -101 6 -16 8 -29 4
-29 -4 0 -59 -7 -122 -15 -100 -13 -117 -18 -136 -40 -27 -31 -30 -81 -6 -107
12 -14 31 -18 80 -18 l65 0 -7 -29 c-7 -32 14 -84 39 -98 10 -6 13 -21 9 -55
l-6 -48 -588 0 -589 0 0 35 c0 22 -6 37 -17 43 -10 5 -84 18 -165 27 -146 18
-147 18 -150 44 -3 22 -9 27 -48 33 -65 10 -413 9 -428 -1 -8 -5 -12 -21 -10
-37 l3 -29 95 -5 c89 -5 95 -6 98 -27 5 -32 40 -53 89 -53 60 0 54 -16 -9 -24
-29 -3 -461 -6 -960 -6 -900 0 -907 0 -913 20 -4 11 -23 29 -43 40 -20 10 -32
19 -25 20 18 0 26 37 13 60 -6 12 -26 30 -43 40 -18 11 -27 20 -22 20 6 0 11
19 13 41 3 47 -19 89 -46 89 -11 1 -7 6 13 17 37 20 45 31 45 65 0 17 -10 35
-31 52 -17 14 -29 34 -28 43 4 41 -2 64 -21 83 -11 11 -16 20 -11 20 16 0 23
40 10 56 -34 41 -132 74 -304 103 -131 22 -149 18 -143 -37 3 -20 -1 -48 -9
-62 -20 -38 -17 -47 33 -100 l47 -50 -30 0 c-16 0 -34 -5 -41 -12 -13 -13 -16
-66 -4 -84 4 -6 86 -26 182 -43 96 -18 176 -34 178 -35 5 -6 -153 -16 -245
-16 -87 0 -96 -2 -119 -25 -22 -22 -24 -30 -18 -77 4 -33 13 -59 24 -69 11 -9
60 -24 109 -34 50 -10 91 -20 91 -24 0 -3 -7 -15 -15 -25 -8 -11 -15 -32 -15
-48 l0 -28 -302 0 c-277 0 -301 1 -280 16 34 24 31 79 -7 98 -18 10 -30 26
-34 45 -9 42 -49 52 -233 58 l-150 5 4 30 c3 16 10 31 16 33 6 2 65 6 132 9
138 6 170 15 184 51 19 50 -21 85 -98 85 -61 0 -76 19 -17 21 72 1 158 22 163
38 4 12 -54 13 -404 7 -225 -4 -429 -11 -454 -16 -44 -7 -44 -8 22 -9 46 -1
70 -5 75 -15 6 -10 60 -18 203 -30 310 -26 370 -35 370 -58 0 -10 -6 -20 -12
-23 -7 -2 -103 -6 -213 -10 -235 -7 -517 -23 -524 -30 -2 -3 34 -5 82 -5 94 0
117 -11 117 -57 l0 -26 -102 7 c-57 3 -160 11 -230 18 -138 12 -158 7 -158
-36 0 -36 14 -46 79 -57 58 -11 61 -13 47 -28 -9 -10 -16 -24 -16 -33 0 -12
-21 -16 -107 -21 -178 -11 -179 -11 -193 23 -20 49 -54 60 -184 60 -127 0
-146 4 -146 30 0 12 10 20 34 24 19 4 45 15 58 26 23 20 23 20 3 35 -13 11
-40 16 -80 15 -86 -2 -127 8 -116 28 7 12 30 16 112 17 105 1 149 13 149 40 0
24 -39 37 -127 43 -68 4 -83 8 -79 19 4 8 6 18 6 23 0 4 18 10 41 13 62 8 81
47 55 109 -6 13 -2 19 17 23 54 14 35 59 -29 71 -39 7 -36 14 16 34 68 26 110
59 110 85 0 23 -3 24 -72 27 l-73 3 69 25 c76 27 98 49 80 78 -6 9 -21 19 -34
20 -21 4 -21 5 9 23 46 28 39 89 -11 89 -15 0 -14 6 13 43 32 44 33 56 11 140
-13 48 -27 64 -61 72 -33 7 -126 -23 -171 -55 -17 -12 -33 -21 -35 -19 -12 13
79 235 167 409 58 113 133 270 168 350 51 116 72 153 106 185 30 29 47 54 56
88 l12 48 51 -6 c27 -3 158 -12 290 -20z m6913 -134 c59 -41 650 -377 693
-393 9 -4 70 -46 135 -95 65 -49 144 -104 174 -123 30 -18 56 -33 56 -34 1 0
-2 -26 -7 -56 -6 -41 -5 -58 5 -70 8 -10 17 -70 24 -170 6 -88 20 -189 32
-234 19 -74 19 -81 4 -104 -14 -22 -15 -39 -5 -146 6 -66 14 -203 17 -303 l5
-183 -25 -25 c-27 -27 -55 -31 -87 -15 -18 10 -19 7 -19 -40 0 -53 -1 -53 -48
-44 -26 5 -30 11 -35 47 -5 33 -2 46 13 59 10 10 24 42 31 72 11 51 9 73 -24
258 -20 112 -41 239 -46 283 -6 44 -19 100 -30 125 -26 56 -30 177 -6 186 20
8 31 70 15 89 -7 8 -13 32 -14 54 -2 36 1 39 38 57 45 21 54 39 33 68 -13 18
-15 17 -41 -9 -29 -29 -28 -29 -131 -1 -75 20 -125 20 -200 0 -33 -9 -82 -18
-110 -19 -27 -2 -77 -10 -110 -18 -32 -9 -60 -15 -61 -14 -1 1 -14 76 -28 167
-15 91 -33 192 -41 225 l-14 60 5 -65 c6 -70 31 -288 39 -332 3 -21 0 -27 -18
-32 -14 -3 -30 -20 -40 -44 -22 -50 -22 -59 7 -101 19 -29 36 -102 89 -381
107 -568 104 -545 80 -579 l-21 -28 39 -68 c22 -37 38 -69 36 -71 -7 -7 -342
-32 -348 -25 -13 13 -171 1013 -214 1352 -14 111 -46 300 -70 418 -25 118 -43
216 -40 219 2 2 14 -13 27 -34 l23 -39 6 38 c8 52 36 87 89 115 54 27 84 28
118 3z m1644 -530 l143 -6 -199 -13 c-109 -7 -208 -18 -218 -23 -13 -7 -18
-19 -16 -37 l3 -26 210 -2 c217 -3 239 -5 252 -18 4 -4 -97 -6 -225 -5 l-233
3 -35 42 c-23 29 -34 53 -34 74 l0 32 104 -7 c57 -4 169 -10 248 -14z m7638
-11 c0 -17 6 -20 40 -20 34 0 40 3 40 22 l0 21 443 -6 c243 -4 721 -10 1062
-13 551 -6 622 -8 639 -23 17 -14 18 -26 12 -116 -9 -140 -30 -906 -29 -1045
1 -63 2 -179 3 -257 1 -78 -1 -147 -5 -152 -4 -8 -120 -11 -353 -10 -326 1
-344 2 -292 16 30 8 63 23 73 34 10 10 25 19 33 19 10 0 14 8 12 23 -3 21 -8
22 -101 25 -105 3 -398 -38 -424 -60 -9 -7 -12 -21 -8 -35 l5 -23 -233 0 -234
0 -7 383 c-6 307 -4 417 8 562 18 206 21 407 6 436 -10 18 -26 19 -464 19
l-454 0 -4 -32 c-3 -18 -1 -46 5 -62 6 -19 8 -111 3 -260 -4 -127 -9 -298 -12
-381 -2 -82 -9 -231 -14 -329 -6 -99 -10 -215 -10 -258 l0 -78 -741 0 -741 0
6 28 c26 123 31 247 20 484 l-7 135 -30 1 c-16 0 -41 11 -54 24 l-25 23 6 185
c4 102 9 202 12 223 5 28 3 37 -8 37 -23 0 -48 38 -48 75 0 47 -43 94 -95 105
-22 5 -69 21 -105 36 -62 26 -71 27 -220 26 -85 -1 -276 3 -425 10 -375 16
-669 -6 -724 -56 -10 -9 -26 -16 -37 -16 -10 0 -25 -4 -33 -9 -17 -11 -41
-112 -41 -175 0 -35 -6 -56 -19 -70 -18 -20 -20 -47 -26 -431 -6 -354 -5 -422
9 -500 9 -49 19 -100 22 -112 l6 -23 -925 0 -925 0 -7 276 c-8 302 -2 424 21
437 17 10 19 66 1 73 -9 3 -13 52 -14 202 -1 190 -14 314 -42 385 l-11 27
-560 0 c-313 0 -559 -4 -556 -9 3 -4 -1 -42 -10 -82 -10 -49 -17 -156 -21
-319 -5 -223 -7 -247 -24 -263 -23 -21 -25 -60 -4 -77 20 -17 20 -118 -1 -170
-12 -30 -14 -47 -6 -68 5 -16 8 -58 5 -93 -5 -58 8 -221 23 -291 l6 -28 -686
0 c-422 0 -686 4 -686 9 0 6 5 13 10 16 27 17 1 123 -35 147 -5 3 -9 28 -8 55
11 280 14 782 5 893 -6 74 -8 170 -5 213 l6 77 30 0 c17 0 38 -7 48 -16 18
-16 176 -48 305 -61 l79 -8 -70 -6 c-38 -4 -109 -7 -156 -8 -48 0 -100 -4
-117 -7 -33 -7 -48 -29 -33 -48 6 -7 8 -21 5 -33 -5 -18 0 -22 33 -27 92 -14
437 -28 532 -21 119 8 131 11 131 35 0 13 13 19 53 26 44 8 53 13 55 33 5 30
-12 40 -68 42 -61 1 -29 13 74 29 97 15 106 18 106 39 0 28 -22 41 -70 42
l-45 0 51 23 c60 27 75 53 45 77 -25 20 -170 57 -271 68 -45 5 322 9 930 10
553 1 1152 4 1331 7 317 6 326 6 367 -15 55 -28 143 -28 197 -1 36 18 59 20
275 20 l236 0 50 -48 c106 -103 269 -97 344 13 l30 44 1765 1 1765 1 0 -21z
m-6299 -270 c163 -33 346 -59 467 -66 l112 -7 0 -27 c0 -31 -18 -49 -80 -80
l-45 -22 25 26 c23 26 24 29 9 54 -15 26 -18 27 -92 25 -84 -2 -123 -8 -329
-55 -76 -17 -140 -30 -142 -27 -2 2 -9 41 -16 87 -6 46 -14 90 -17 98 -7 18
-10 18 108 -6z m6539 -75 c53 -26 170 -99 170 -105 0 -3 -63 -25 -140 -50
l-139 -46 -5 46 c-3 25 -8 80 -12 122 l-6 77 48 -13 c27 -7 65 -21 84 -31z
m-9170 -29 c0 -28 6 -48 16 -57 9 -8 64 -31 123 -51 l106 -38 -85 5 c-47 2
-90 5 -95 6 -6 1 -22 0 -35 -4 -23 -5 -28 0 -58 66 -43 96 -43 117 5 117 21 0
23 -5 23 -44z m5645 -27 c-61 -13 -85 -10 -85 11 0 11 -5 19 -12 18 -6 -2 -13
4 -15 13 -3 14 7 13 69 -10 68 -24 71 -26 43 -32z m-2645 -128 c-43 -34 -211
-133 -216 -129 -2 3 1 19 7 36 9 26 19 34 52 42 23 6 71 23 107 39 78 35 82
36 50 12z m3600 -19 c0 -5 -25 -16 -56 -26 -84 -27 -530 -218 -680 -292 -71
-36 -164 -87 -205 -114 -67 -44 -74 -47 -77 -29 -2 11 -1 26 2 34 6 15 277
154 421 215 54 23 151 60 213 82 122 42 218 84 267 116 30 20 115 30 115 14z
m-711 -28 l83 -6 -93 -50 c-52 -28 -142 -81 -201 -118 l-106 -68 -7 114 c-4
62 -5 120 -2 127 6 15 118 15 326 1z m-14069 -29 c0 -8 11 -39 24 -69 14 -31
22 -64 19 -76 -4 -13 3 -33 17 -51 12 -17 20 -32 18 -33 -1 -2 -28 -11 -58
-21 -63 -20 -90 -40 -90 -67 0 -10 -7 -18 -15 -18 -23 0 -39 -39 -27 -66 8
-17 7 -25 -4 -34 -18 -16 -18 -74 0 -89 8 -6 37 -14 65 -18 28 -3 51 -9 51
-13 0 -18 -44 -50 -70 -50 -30 0 -46 -23 -35 -52 7 -17 -40 -60 -107 -98 l-41
-23 6 164 5 165 75 144 c41 80 92 186 113 237 34 82 54 108 54 68z m17506 3
c-3 -13 -6 -33 -6 -45 0 -16 -8 -23 -32 -28 -18 -4 -70 -17 -114 -31 -45 -13
-87 -24 -93 -24 -6 0 -11 15 -11 34 l0 34 118 39 c144 49 146 49 138 21z
m-6136 -54 c0 -58 -2 -65 -15 -54 -11 9 -35 11 -78 7 -60 -5 -61 -5 -37 11 14
10 47 36 75 59 27 23 51 42 53 42 1 1 2 -29 2 -65z m-410 47 c0 -4 -5 -21 -10
-37 -10 -29 -64 -62 -177 -110 l-33 -14 0 73 0 74 88 10 c121 14 132 14 132 4z
m4028 -133 c-3 -7 -29 -22 -59 -33 -30 -12 -99 -39 -154 -60 -522 -200 -792
-315 -933 -398 l-62 -36 -2 39 c-1 22 -2 47 -2 56 -1 11 22 25 74 44 41 15
161 65 265 110 274 119 348 145 555 200 102 27 212 58 245 69 74 23 78 24 73
9z m6045 -65 c4 -3 3 -11 -3 -18 -9 -10 -25 -10 -145 6 -11 1 12 5 50 9 39 4
75 7 81 8 6 1 14 -1 17 -5z m-12643 -34 c30 -6 63 -15 72 -20 10 -5 34 -9 53
-9 l35 0 0 -67 c0 -38 3 -99 7 -137 6 -67 6 -68 -15 -57 -11 6 -38 11 -60 11
l-39 0 -6 97 c-7 117 -23 146 -83 151 -39 3 -54 15 -54 41 0 8 6 11 18 6 9 -3
42 -11 72 -16z m12581 -135 c-9 -51 -18 -55 -94 -49 -40 4 -77 8 -84 10 -11 4
-7 34 12 91 2 8 30 4 87 -11 70 -19 82 -25 79 -41z m-18337 -22 c-17 -4 -112
26 -119 37 -2 5 27 -1 65 -13 38 -11 63 -22 54 -24z m17476 -2 c0 -5 -2 -10
-4 -10 -3 0 -8 5 -11 10 -3 6 -1 10 4 10 6 0 11 -4 11 -10z m-8732 -97 c-2
-10 -14 -20 -28 -22 -25 -3 -25 -3 -6 18 23 26 39 27 34 4z m6092 -50 c0 -29
-2 -53 -4 -53 -2 0 -21 7 -42 16 -30 13 -56 15 -116 10 l-77 -6 17 45 17 46
102 -3 103 -3 0 -52z m3428 -18 c3 -2 -38 -116 -44 -124 -3 -4 -105 27 -123
38 -9 6 -10 18 0 55 l12 47 76 -6 c42 -4 77 -9 79 -10z m-5900 -102 c6 -27 13
-55 16 -63 5 -12 -4 -15 -42 -16 -30 0 -117 -25 -242 -67 -107 -36 -223 -73
-256 -82 -83 -20 -303 -46 -389 -45 -107 2 -105 2 -116 -30 l-11 -30 -95 0
-94 0 3 27 c3 26 11 30 123 66 97 31 602 167 987 266 105 27 103 28 116 -26z
m4942 -72 c22 -44 43 -82 48 -85 9 -5 6 -137 -4 -184 -6 -28 -63 -57 -97 -48
-13 3 -34 14 -47 24 -20 16 -21 21 -10 62 l12 43 22 -39 c16 -29 28 -39 46
-39 59 0 64 115 10 219 -26 50 -41 126 -25 126 3 0 23 -36 45 -79z m-11300
-143 c0 -3 -20 -6 -45 -6 -25 0 -45 4 -45 9 0 9 27 117 37 149 4 12 51 -124
53 -152z m5330 126 c-57 -33 -178 -94 -185 -94 -4 0 -5 17 -3 38 l3 37 100 22
c131 28 138 28 85 -3z m3500 -8 c0 -13 3 -38 7 -56 l6 -33 -67 6 c-37 4 -104
17 -149 29 l-82 23 100 8 c63 5 113 15 135 26 47 25 50 25 50 -3z m3273 -25
c74 -12 77 -23 25 -74 -44 -44 -46 -45 -122 -49 -42 -3 -75 -2 -73 1 2 3 16
34 32 69 31 69 34 70 138 53z m-5656 -31 c6 0 15 -15 19 -32 3 -18 12 -42 20
-53 7 -11 16 -37 19 -57 l7 -38 -163 0 -164 0 65 44 c73 49 150 127 150 152 0
16 1 16 18 1 10 -10 23 -17 29 -17z m-15596 -170 c4 -25 3 -25 -76 -28 l-80
-3 35 38 c19 21 51 55 70 76 l35 38 6 -48 c4 -26 8 -59 10 -73z m11871 38 l-4
-48 -314 0 -313 0 6 33 c3 17 7 33 7 34 1 1 47 -7 101 -18 139 -29 296 -23
410 15 44 15 84 32 90 37 16 15 22 -4 17 -53z m8333 -17 c-4 -17 -11 -31 -16
-31 -12 0 -11 14 3 45 15 32 22 25 13 -14z"/>
<path d="M5964 13775 c-7 -28 10 -55 33 -55 10 0 13 6 9 16 -3 9 -6 27 -6 40
0 32 -28 31 -36 -1z"/>
<path d="M7101 13584 c0 -11 3 -14 6 -6 3 7 2 16 -1 19 -3 4 -6 -2 -5 -13z"/>
<path d="M7092 13535 c0 -16 2 -22 5 -12 2 9 2 23 0 30 -3 6 -5 -1 -5 -18z"/>
<path d="M11115 12514 c-184 -25 -175 -22 -175 -48 0 -21 6 -23 173 -44 236
-31 491 -26 534 10 23 19 12 61 -22 77 -44 22 -365 24 -510 5z"/>
<path d="M14868 12700 c-160 -12 -396 -40 -422 -50 -53 -20 -71 -88 -35 -134
l23 -29 245 6 c273 7 447 24 654 63 141 27 167 39 167 77 0 31 -11 44 -45 57
-39 15 -432 21 -587 10z"/>
<path d="M16592 12568 c-17 -17 -15 -74 4 -92 8 -9 18 -16 20 -16 3 0 69 -7
147 -16 189 -21 358 -23 380 -5 26 21 21 50 -10 62 -56 21 -155 39 -319 59
-198 23 -206 24 -222 8z"/>
<path d="M16470 11043 c0 -6 26 -16 57 -23 31 -7 76 -21 101 -31 54 -24 52
-24 52 4 0 20 -7 24 -57 34 -102 21 -153 26 -153 16z"/>
<path d="M8504 10708 c-50 -24 -57 -96 -15 -139 l29 -29 -29 0 c-39 0 -79 -40
-79 -78 0 -34 18 -52 69 -69 l36 -13 -51 5 c-41 4 -56 1 -77 -16 -15 -11 -27
-29 -27 -40 0 -17 -7 -19 -59 -19 -51 0 -62 -3 -75 -22 -9 -12 -16 -29 -16
-38 1 -36 19 -45 97 -50 l78 -5 -60 -31 c-103 -54 -124 -68 -134 -92 -16 -34
-14 -51 14 -99 22 -36 31 -43 57 -43 l30 0 -35 -39 c-20 -23 -38 -54 -41 -73
-14 -91 -14 -114 -4 -154 7 -24 19 -46 27 -50 35 -14 231 -17 276 -4 64 18 85
69 34 85 -10 4 -19 13 -19 21 0 8 -11 26 -25 39 -22 22 -32 25 -105 25 -44 0
-80 4 -80 8 0 19 28 32 70 32 73 0 100 42 60 93 -18 22 -18 26 -4 38 11 9 14
23 11 44 -4 26 0 34 23 50 58 39 78 111 39 139 -24 16 -33 12 104 47 56 15
103 51 118 94 7 19 21 37 31 41 23 7 40 38 32 58 -5 13 1 16 27 15 19 0 28 -3
22 -6 -21 -8 -15 -33 8 -33 15 0 19 5 15 18 -5 15 3 17 77 20 68 3 86 7 104
25 37 37 39 72 6 105 -26 26 -36 29 -128 35 -131 9 -211 29 -312 77 -90 44
-89 43 -119 28z"/>
<path d="M3333 10569 c-7 -7 -13 -21 -13 -30 0 -22 64 -75 108 -91 17 -7 32
-15 32 -18 0 -4 -38 -13 -85 -20 -106 -17 -124 -27 -107 -65 12 -25 15 -26 62
-20 42 6 50 4 50 -9 0 -12 -7 -15 -22 -12 -13 3 -82 8 -155 11 -93 4 -133 3
-138 -5 -4 -7 -3 -16 2 -21 5 -5 117 -20 249 -34 418 -42 523 -42 548 -2 24
39 -43 59 -260 80 l-129 13 75 23 c41 13 100 26 130 29 61 5 80 15 80 44 0 14
-28 32 -116 75 -111 55 -120 57 -208 61 -65 3 -95 0 -103 -9z"/>
<path d="M6940 10300 c-63 -14 -145 -48 -165 -70 -21 -23 -12 -58 18 -65 13
-4 44 4 72 17 63 29 185 30 296 3 82 -19 109 -16 109 13 0 23 -33 54 -88 81
-49 25 -171 35 -242 21z"/>
<path d="M9220 10175 c-32 -99 -38 -130 -29 -141 13 -15 39 -19 39 -5 0 4 9
66 20 137 11 70 18 130 16 132 -3 2 -23 -53 -46 -123z"/>
<path d="M8841 10227 c-8 -10 -7 -18 2 -29 38 -47 183 -108 256 -108 60 0 83
19 79 63 -4 39 -39 64 -107 77 -80 15 -216 13 -230 -3z"/>
<path d="M6673 10099 c-7 -7 -13 -21 -13 -30 0 -9 6 -21 13 -26 15 -12 427
-80 562 -93 55 -5 141 -10 191 -10 96 0 119 10 112 47 -6 34 -243 81 -518 102
-276 22 -334 23 -347 10z"/>
<path d="M3391 10056 c7 -8 356 -46 414 -45 37 0 38 1 15 11 -14 5 -92 14
-175 19 -82 4 -175 11 -205 15 -30 4 -52 4 -49 0z"/>
<path d="M3269 9993 c-10 -26 14 -93 32 -93 22 0 5 -19 -31 -35 -22 -10 -39
-19 -37 -21 1 -2 91 12 200 31 109 18 257 39 330 46 73 6 136 16 141 20 6 5 2
9 -10 9 -33 0 -505 49 -562 59 -51 8 -54 7 -63 -16z"/>
<path d="M4656 9960 c-79 -10 -98 -22 -74 -46 14 -14 44 -17 190 -18 95 0 185
2 201 7 33 9 35 32 5 48 -28 15 -230 21 -322 9z"/>
<path d="M5614 9949 c-49 -14 -124 -70 -147 -110 -18 -32 -19 -39 -8 -67 7
-17 21 -34 31 -37 15 -5 12 -12 -21 -48 -102 -111 -121 -275 -47 -423 129
-259 433 -297 636 -79 150 160 184 383 85 552 -52 89 -178 176 -299 207 -67
17 -180 20 -230 5z m238 -235 c59 -20 145 -95 169 -149 25 -53 24 -147 0 -201
-39 -86 -121 -154 -203 -169 -85 -16 -208 53 -262 148 -55 96 -57 195 -6 290
26 49 27 56 14 75 -14 20 -13 21 43 25 91 7 194 -1 245 -19z"/>
<path d="M6457 9903 c-13 -12 -7 -54 7 -59 8 -3 115 -20 238 -38 l223 -33 -75
-6 c-41 -4 -151 -11 -245 -18 -252 -16 -289 -21 -293 -40 -3 -15 34 -17 365
-22 235 -4 419 -11 508 -22 77 -8 207 -20 289 -25 160 -10 180 -6 174 34 -3
18 -17 24 -103 41 -98 21 -100 22 -103 50 -2 17 -7 33 -10 37 -19 19 -318 57
-702 88 -282 23 -265 22 -273 13z"/>
<path d="M3735 9869 c-176 -22 -582 -93 -593 -104 -6 -6 138 -35 267 -55 69
-10 245 -31 391 -45 146 -15 278 -30 295 -34 37 -9 45 -38 13 -50 -25 -9 -311
-40 -398 -43 -97 -2 110 -16 268 -17 89 -1 142 3 142 9 0 6 9 19 20 30 35 35
26 54 -53 109 -95 65 -230 104 -399 116 -54 4 -98 11 -98 16 0 5 40 9 89 9 48
0 103 5 122 12 38 13 78 39 79 51 0 9 -52 7 -145 -4z"/>
<path d="M4811 9774 c-71 -19 -151 -63 -161 -88 -16 -45 19 -82 68 -73 15 3
42 -1 62 -9 61 -24 183 -54 218 -54 62 0 99 65 56 101 -11 9 -11 13 1 26 31
30 18 59 -37 87 -60 30 -122 33 -207 10z"/>
<path d="M3046 9649 c-20 -40 -35 -72 -34 -73 11 -5 766 15 813 21 56 8 48 9
-125 27 -219 22 -402 49 -518 76 -46 11 -87 20 -91 20 -4 0 -24 -32 -45 -71z"/>
<path d="M6795 9544 c-16 -2 -49 -7 -72 -10 -45 -6 -68 -29 -57 -58 5 -13 28
-16 143 -17 75 0 154 -4 176 -8 37 -7 34 -8 -40 -15 -44 -4 -111 -12 -148 -18
-60 -10 -68 -13 -65 -32 3 -20 8 -21 163 -22 123 0 186 -6 273 -23 63 -12 135
-21 160 -19 41 3 47 6 46 26 0 16 5 22 21 22 27 0 47 22 39 43 -9 24 -134 85
-221 108 -59 16 -116 22 -233 24 -85 2 -168 1 -185 -1z"/>
<path d="M2996 9516 c-8 -31 10 -89 34 -111 19 -17 30 -18 191 -7 203 14 435
38 545 56 l79 12 -120 7 c-66 4 -203 12 -305 17 -214 12 -366 27 -397 40 -17
7 -22 5 -27 -14z"/>
<path d="M8307 9470 c-37 -37 -57 -65 -55 -77 4 -23 75 -42 183 -50 97 -6 135
5 135 42 0 42 -41 60 -132 59 l-79 -2 23 25 c17 18 20 28 12 40 -18 28 -27 24
-87 -37z"/>
<path d="M4025 9450 l-70 -18 61 -1 c49 -1 64 3 79 19 21 23 22 23 -70 0z"/>
<path d="M3870 9419 c-91 -18 -351 -49 -550 -65 -113 -9 -206 -17 -207 -18 -2
-2 93 -8 210 -15 284 -16 622 -39 677 -46 32 -4 41 -3 30 4 -8 6 -25 11 -37
11 -24 0 -31 14 -13 25 18 11 10 43 -15 63 -14 11 -25 27 -25 36 0 18 -4 18
-70 5z"/>
<path d="M3018 9269 c-16 -11 -28 -25 -28 -31 0 -7 60 -8 188 -4 219 8 375 16
379 20 1 1 -98 8 -220 15 -122 6 -238 14 -257 17 -25 3 -43 -1 -62 -17z"/>
<path d="M6674 9246 c-17 -43 -3 -50 136 -73 74 -12 180 -23 235 -25 96 -3
100 -2 103 19 3 19 -6 23 -85 41 -77 18 -317 52 -366 52 -10 0 -20 -6 -23 -14z"/>
<path d="M6834 9135 c-12 -30 7 -45 88 -69 231 -68 254 -76 208 -71 -67 7
-498 24 -705 27 -174 3 -180 2 -180 -17 0 -12 9 -22 25 -27 97 -27 1120 -62
1143 -39 17 17 4 23 -81 34 -74 9 -78 11 -74 33 6 30 -18 41 -214 98 -173 50
-202 54 -210 31z"/>
<path d="M2860 9113 c-69 -4 -90 -15 -90 -44 0 -17 8 -19 83 -18 122 1 505 23
511 30 3 3 -81 11 -187 18 -105 6 -205 13 -222 15 -16 1 -59 1 -95 -1z"/>
<path d="M10336 10234 c-19 -18 -21 -55 -4 -72 17 -17 25 -15 31 8 3 12 22 28
46 38 22 9 41 20 41 23 0 6 -59 19 -87 19 -6 0 -19 -7 -27 -16z"/>
<path d="M14360 10032 c0 -5 14 -21 30 -37 21 -20 33 -26 38 -18 5 8 42 6 142
-8 94 -14 176 -19 270 -17 129 3 135 4 138 24 3 18 -5 23 -41 32 -115 29 -485
45 -527 22 -13 -7 -21 -7 -25 0 -7 12 -25 13 -25 2z"/>
<path d="M20660 9876 c0 -24 -3 -26 -44 -26 -64 0 -98 -39 -61 -70 12 -10 40
-11 127 -3 68 6 127 6 154 1 47 -10 114 3 133 26 16 19 3 46 -23 47 -97 3
-147 9 -186 24 -25 9 -57 19 -72 22 -25 5 -28 2 -28 -21z"/>
<path d="M11720 9784 c-14 -2 -59 -9 -100 -15 -41 -5 -112 -17 -158 -26 -75
-14 -83 -18 -80 -37 3 -19 9 -21 63 -18 244 11 505 56 505 87 0 12 -19 15
-102 14 -57 -1 -114 -3 -128 -5z"/>
<path d="M18085 9770 c-3 -5 -1 -10 4 -10 6 0 11 5 11 10 0 6 -2 10 -4 10 -3
0 -8 -4 -11 -10z"/>
<path d="M14302 9728 c3 -8 64 -23 152 -38 113 -19 150 -29 157 -42 9 -15 25
-18 112 -18 56 0 138 -5 183 -11 74 -11 83 -15 108 -45 24 -30 25 -34 9 -35
-10 -1 -92 -5 -182 -8 -140 -5 -165 -9 -175 -23 -21 -34 5 -39 230 -45 249 -7
349 0 359 24 10 28 -13 38 -96 42 -77 3 -80 4 -95 33 -9 16 -14 31 -12 33 2 2
43 -1 91 -7 63 -7 92 -7 100 1 7 7 1 15 -24 25 -32 14 -33 15 -8 16 55 0 89
12 89 30 0 25 -54 30 -324 30 -187 0 -268 5 -426 25 -224 29 -253 30 -248 13z"/>
<path d="M17788 9694 c-16 -3 -28 -9 -28 -14 0 -10 69 -33 165 -56 77 -18 351
-33 412 -23 21 4 87 12 147 19 151 16 166 19 166 40 0 10 -10 20 -22 23 -30 8
-804 17 -840 11z"/>
<path d="M20642 9685 c-41 -12 -85 -52 -75 -67 6 -12 55 -10 92 3 18 7 70 12
114 13 75 1 82 3 82 21 0 11 -11 25 -25 32 -32 16 -133 15 -188 -2z"/>
<path d="M11975 9633 c-22 -2 -127 -13 -233 -24 -107 -12 -244 -24 -305 -28
-106 -6 -112 -7 -115 -28 -4 -28 5 -30 178 -46 l135 -12 -125 -14 c-68 -7
-128 -15 -132 -17 -17 -11 -7 -44 15 -48 84 -17 394 -38 495 -34 144 6 195 24
190 65 -2 23 -10 29 -48 40 -25 8 -78 16 -118 20 l-73 6 83 22 c111 29 150 50
146 78 -3 24 -19 27 -93 20z"/>
<path d="M18446 9544 c-174 -45 -318 -74 -372 -74 -16 0 -39 -7 -50 -15 -19
-15 -19 -15 1 -31 17 -13 39 -15 145 -9 154 8 232 19 335 51 112 34 149 54
153 83 4 23 -12 41 -33 40 -5 0 -86 -20 -179 -45z"/>
<path d="M20497 9507 c-9 -23 6 -34 63 -47 80 -18 94 -29 40 -31 -77 -2 -105
-12 -108 -37 -5 -31 31 -42 142 -44 103 -2 139 10 134 45 -3 19 1 21 38 19 40
-3 72 16 60 36 -8 14 -117 42 -220 58 -115 17 -143 17 -149 1z"/>
<path d="M17791 9398 c-31 -82 -16 -212 29 -253 20 -18 20 -18 20 6 0 13 -14
44 -30 68 -17 24 -30 51 -30 60 0 26 37 79 61 86 l21 7 -25 24 c-32 30 -35 30
-46 2z"/>
<path d="M14925 9349 c-77 -12 -174 -18 -272 -19 -143 0 -153 -1 -163 -20 -14
-27 -4 -57 23 -72 37 -20 387 -16 471 5 135 34 196 76 166 112 -16 20 -74 18
-225 -6z"/>
<path d="M11735 9294 c-128 -21 -159 -34 -163 -67 -2 -16 2 -35 9 -43 40 -48
489 40 489 96 0 10 -7 21 -16 24 -28 11 -236 4 -319 -10z"/>
<path d="M20512 9303 c-52 -3 -63 -7 -61 -21 1 -9 -1 -25 -6 -34 -11 -28 0
-45 35 -52 42 -8 328 -6 360 3 31 8 41 51 13 52 -10 0 -13 3 -5 6 25 10 13 40
-19 47 -31 6 -197 5 -317 -1z"/>
<path d="M18254 9265 c-10 -8 -36 -15 -58 -15 -32 0 -37 -3 -31 -17 4 -10 16
-47 27 -83 26 -82 30 -87 74 -82 32 4 39 10 60 56 13 28 24 56 23 61 0 6 -17
29 -38 52 -35 39 -40 41 -57 28z"/>
<path d="M14489 9174 c18 -64 52 -103 113 -129 60 -24 65 -18 17 22 -24 21
-65 60 -91 88 -46 48 -47 49 -39 19z"/>
<path d="M20760 9140 c-83 -8 -275 -47 -302 -62 -22 -11 -23 -37 -4 -44 44
-17 417 48 454 78 31 27 -37 39 -148 28z"/>
<path d="M17880 9019 c0 -46 92 -119 151 -119 18 0 10 8 -38 35 -34 20 -73 49
-87 66 -14 17 -26 25 -26 18z"/>
<path d="M20492 8990 c-51 -5 -95 -10 -98 -12 -2 -3 -5 -27 -6 -54 l-3 -49
227 -8 c247 -9 308 -2 308 33 0 23 -28 40 -68 40 -18 0 -35 8 -43 20 -25 36
-124 45 -317 30z"/>
<path d="M27620 15543 c-8 -3 -31 -21 -51 -40 -23 -22 -39 -31 -43 -24 -11 18
-53 13 -89 -11 -19 -13 -49 -31 -66 -40 -30 -17 -71 -71 -71 -95 0 -10 45 -13
194 -13 l193 0 12 57 c16 79 14 117 -6 141 -20 23 -50 33 -73 25z"/>
<path d="M9238 15084 c-5 -4 -8 -11 -8 -16 0 -11 152 -10 170 2 11 7 1 10 -35
10 -27 0 -66 3 -85 6 -19 3 -38 2 -42 -2z"/>
<path d="M29660 10675 c-11 -14 -7 -22 26 -56 21 -22 53 -49 71 -60 37 -23 96
-28 118 -9 39 32 -1 77 -89 99 -27 7 -62 19 -77 27 -35 17 -34 17 -49 -1z"/>
<path d="M27655 10661 c-42 -18 -58 -47 -53 -99 l5 -50 -73 -6 c-132 -12 -336
-45 -350 -57 -17 -14 -18 -53 -1 -67 25 -21 264 -53 582 -78 371 -29 515 2
515 111 0 18 -9 44 -21 58 -21 28 -100 57 -151 57 -21 0 -31 6 -37 24 -12 30
-29 36 -105 36 -42 0 -74 6 -101 20 -44 22 -76 25 -92 9 -14 -14 -33 -3 -33
17 0 8 -12 19 -26 24 -29 12 -32 12 -59 1z"/>
<path d="M25192 10518 c-7 -7 -12 -25 -12 -40 0 -23 11 -36 60 -72 33 -24 73
-50 90 -58 44 -19 37 -26 -17 -17 -54 8 -93 -8 -93 -40 0 -27 25 -44 120 -81
109 -43 221 -54 241 -22 11 17 20 19 66 15 90 -10 127 35 84 100 -24 37 -71
68 -151 100 -36 14 -95 39 -132 56 -65 30 -198 71 -228 71 -9 0 -21 -5 -28
-12z"/>
<path d="M29600 10451 c-14 -27 -13 -66 3 -80 8 -6 56 -24 108 -40 l94 -29
-87 5 c-63 4 -92 2 -103 -7 -18 -15 -20 -64 -2 -78 6 -5 58 -23 115 -38 120
-34 113 -42 -36 -43 -57 -1 -112 -6 -123 -11 -27 -15 -26 -66 2 -81 l21 -11
-23 -12 c-16 -8 -25 -22 -27 -42 -5 -52 15 -59 152 -56 85 3 141 -1 189 -12
187 -44 253 17 113 104 -27 17 -27 19 -8 29 30 16 34 50 9 75 l-23 23 23 17
c47 35 17 91 -62 120 -36 13 -37 15 -13 15 38 1 77 21 83 42 16 51 -77 104
-206 119 -135 16 -187 13 -199 -9z"/>
<path d="M1757 10293 c-51 -79 -77 -128 -77 -147 0 -18 4 -26 9 -20 12 12 154
284 149 284 -2 0 -39 -53 -81 -117z"/>
<path d="M27455 10244 c10 -8 25 -14 32 -14 7 0 13 -9 13 -19 0 -11 2 -26 5
-34 5 -11 -20 -17 -122 -31 -211 -28 -365 -61 -380 -82 -18 -25 -16 -68 5 -95
l19 -22 194 14 c128 9 380 14 744 14 401 1 557 4 578 13 49 21 58 90 17 127
-52 47 -269 76 -559 75 -208 -1 -223 0 -391 33 -117 23 -168 30 -155 21z"/>
<path d="M24167 10044 c-13 -14 -7 -43 11 -48 38 -11 241 -55 313 -67 80 -13
109 -9 109 15 0 24 -28 34 -187 65 -186 37 -236 44 -246 35z"/>
<path d="M25152 10005 c-95 -7 -175 -15 -179 -18 -10 -11 187 -95 378 -162 81
-28 99 -32 86 -17 -9 10 -40 26 -69 36 -29 10 -56 22 -61 25 -4 4 66 -1 155
-10 222 -24 310 -24 331 -1 38 42 12 72 -95 109 -58 21 -98 27 -195 31 -68 2
-123 9 -123 13 0 10 -1 10 -228 -6z"/>
<path d="M24286 9859 c-59 -9 -80 -22 -71 -46 3 -10 -17 -13 -80 -13 -74 0
-86 -2 -95 -20 -8 -15 -8 -27 2 -48 12 -25 20 -28 108 -38 483 -57 610 -55
610 9 0 17 -10 28 -35 40 -20 9 -42 17 -50 17 -8 0 -19 9 -25 19 -15 28 -105
69 -180 81 -74 11 -101 11 -184 -1z"/>
<path d="M27575 9863 c-332 -22 -548 -43 -559 -52 -23 -19 -28 -61 -12 -86
l15 -23 348 0 c213 -1 431 -7 563 -16 118 -9 299 -16 401 -16 173 0 188 1 213
21 30 24 34 59 9 81 -22 19 -150 51 -293 73 -103 16 -546 28 -685 18z"/>
<path d="M26333 9831 c-95 -32 -159 -99 -183 -189 -9 -37 -9 -48 5 -69 14 -21
23 -24 50 -20 l32 5 6 -58 c27 -257 258 -412 512 -344 68 18 17 20 870 -27
607 -33 765 -33 962 -3 57 9 111 23 119 31 21 22 17 60 -8 77 -33 22 -204 53
-353 66 -71 6 -131 13 -134 16 -2 2 79 4 180 4 276 0 510 31 551 72 27 27 24
82 -7 106 -47 37 -356 76 -567 71 -48 -2 -92 2 -100 8 -15 12 -123 38 -218 53
-91 14 -329 24 -373 16 l-38 -7 63 -47 63 -47 -51 -3 c-43 -2 -63 3 -120 33
-66 34 -71 35 -113 23 -75 -22 -48 -43 64 -48 l50 -2 -40 -8 c-22 -4 -119 -11
-215 -14 -96 -4 -200 -9 -230 -12 l-55 -6 -17 49 c-38 109 -206 228 -386 274
-99 25 -247 25 -319 0z m225 -181 c34 -6 97 -22 140 -35 131 -41 222 -115 143
-115 -53 0 -79 -62 -41 -100 20 -20 20 -20 -18 -44 -103 -67 -235 -54 -335 33
-50 45 -97 141 -97 202 0 48 0 48 38 54 20 4 42 8 47 10 19 7 61 5 123 -5z
m637 -309 l0 -28 -104 -7 c-57 -3 -106 -5 -107 -3 -2 2 7 19 20 38 l23 34 84
-3 84 -3 0 -28z m745 -6 c231 -11 207 -23 -45 -24 -218 0 -244 1 -280 19 l-40
19 120 -4 c66 -3 176 -7 245 -10z"/>
<path d="M29595 9823 c-43 -2 -85 -9 -92 -15 -7 -6 -13 -25 -13 -44 0 -41 21
-54 84 -54 45 0 46 -1 35 -22 -26 -51 -29 -59 -29 -94 0 -59 41 -118 102 -148
62 -31 92 -32 136 -6 61 37 34 120 -38 120 -15 0 -35 7 -46 15 -18 14 -17 14
9 5 38 -13 80 -13 95 2 32 32 -4 76 -85 103 -29 9 -53 18 -53 19 0 2 46 3 103
3 132 -1 211 10 238 32 31 25 18 57 -29 72 -40 11 -285 19 -417 12z"/>
<path d="M25506 9782 c-3 -5 55 -27 128 -50 73 -23 140 -44 149 -48 28 -10 23
52 -5 70 -42 27 -259 49 -272 28z"/>
<path d="M24956 9761 c-21 -3 -43 -13 -49 -22 -13 -20 -1 -69 17 -69 7 0 24
-8 37 -18 13 -11 36 -22 51 -25 15 -4 29 -15 33 -26 3 -10 20 -25 38 -33 87
-42 81 -41 184 -29 100 13 216 34 288 53 l40 10 -230 80 c-239 84 -305 97
-409 79z"/>
<path d="M24156 9628 c-31 -43 -14 -64 67 -84 l52 -12 -40 -1 c-22 0 -103 4
-180 9 -85 5 -147 4 -157 -1 -21 -11 -24 -52 -5 -67 12 -10 362 -82 494 -101
39 -6 114 -11 165 -10 89 1 92 1 61 15 -54 23 -70 77 -33 114 17 17 33 20 107
20 85 0 86 0 68 20 -9 10 -38 26 -64 34 -40 13 -470 86 -507 86 -7 0 -20 -10
-28 -22z"/>
<path d="M25870 9631 c15 -28 13 -36 -17 -71 l-27 -32 75 7 c99 9 109 12 109
39 0 30 -13 41 -79 60 -69 20 -74 20 -61 -3z"/>
<path d="M25575 9459 c-73 -19 -271 -52 -390 -65 l-70 -7 45 -9 c25 -4 153
-24 285 -43 132 -19 315 -47 406 -62 143 -23 170 -25 197 -14 38 16 48 41 30
78 -15 32 -78 56 -193 74 -38 7 -97 24 -129 40 -68 33 -85 34 -181 8z"/>
<path d="M24053 9369 c-14 -14 -18 -65 -5 -73 11 -7 299 -73 354 -81 35 -5 52
-3 70 9 16 12 46 16 110 16 73 0 88 3 88 16 0 33 -157 76 -357 98 -248 28
-247 28 -260 15z"/>
<path d="M24740 9317 c0 -29 25 -37 115 -36 l90 1 -90 24 c-105 27 -115 28
-115 11z"/>
<path d="M29650 9298 c-275 -11 -283 -13 -278 -77 2 -25 10 -39 26 -47 33 -16
576 -29 630 -14 57 15 97 50 88 77 -10 31 -81 61 -156 67 -36 2 -175 0 -310
-6z"/>
<path d="M24810 9241 c0 -8 85 -22 130 -20 16 1 7 6 -25 14 -60 16 -105 18
-105 6z"/>
<path d="M25225 9223 c-11 -3 -24 -9 -29 -14 -6 -5 36 -9 105 -8 95 1 106 3
64 10 -87 14 -119 17 -140 12z"/>
<path d="M25428 9193 c6 -2 18 -2 25 0 6 3 1 5 -13 5 -14 0 -19 -2 -12 -5z"/>
<path d="M24154 9134 c-4 -16 -2 -31 7 -39 8 -8 88 -37 179 -65 124 -38 177
-50 215 -48 48 3 50 4 53 35 3 28 -1 34 -36 52 -43 22 -333 91 -382 91 -24 0
-31 -5 -36 -26z"/>
<path d="M25840 9070 c14 -4 34 -8 45 -8 16 0 15 2 -5 8 -14 4 -34 8 -45 8
-16 0 -15 -2 5 -8z"/>
<path d="M28110 9039 c118 -22 115 -22 101 -5 -10 12 -31 16 -80 15 -66 -1
-66 -1 -21 -10z"/>
<path d="M23160 7699 c-19 -86 -84 -208 -152 -290 -110 -130 -284 -425 -343
-582 -14 -37 -25 -69 -25 -72 0 -2 16 -8 34 -14 44 -11 90 -1 187 41 60 26 89
32 152 34 l78 2 50 73 c132 191 328 358 502 426 170 67 307 153 402 255 53 55
100 117 94 122 -2 2 -38 -1 -80 -7 -62 -8 -107 -6 -247 12 -292 36 -438 25
-527 -43 -44 -34 -55 -33 -55 4 0 19 -11 42 -29 62 l-28 32 -13 -55z"/>
<path d="M21634 6803 c-6 -4 -16 -24 -23 -44 -31 -94 -98 -156 -181 -166 -46
-5 -56 -12 -137 -92 -121 -118 -249 -191 -416 -236 l-79 -21 51 -49 c62 -60
137 -108 211 -136 43 -16 72 -20 135 -17 98 4 148 27 274 129 180 146 318 179
456 110 l53 -27 53 27 c136 70 280 34 465 -116 116 -95 163 -118 254 -123 96
-5 164 13 248 67 64 42 152 118 152 131 0 4 -31 15 -69 25 -157 38 -310 126
-433 249 -67 67 -77 74 -122 78 -85 10 -141 65 -191 188 l-10 25 -140 -1 c-77
-1 -162 -2 -190 -3 -27 -1 -117 1 -200 4 -82 3 -155 2 -161 -2z"/>
<path d="M30094 6803 c-5 -4 -18 -30 -28 -57 -34 -89 -115 -156 -191 -156 -31
0 -44 -8 -97 -66 -111 -118 -270 -212 -438 -258 l-83 -22 52 -50 c104 -100
222 -154 336 -154 84 0 138 21 220 84 194 151 271 189 380 190 56 0 82 -6 133
-29 l64 -28 53 26 c79 39 139 44 222 19 83 -26 167 -75 253 -148 95 -81 149
-106 241 -112 95 -6 163 13 247 67 61 40 152 117 152 130 0 4 -30 14 -67 24
-162 42 -313 129 -434 249 -68 69 -78 76 -123 80 -85 10 -141 65 -191 188
l-10 25 -140 -1 c-77 -1 -162 -2 -190 -3 -27 -1 -117 1 -200 4 -82 3 -155 2
-161 -2z"/>
<path d="M5642 6550 c-162 -23 -295 -77 -514 -208 -232 -139 -327 -181 -461
-202 l-76 -13 23 -46 c13 -25 32 -71 42 -101 35 -106 27 -179 -110 -1005 -113
-676 -319 -1918 -437 -2637 -23 -142 -44 -257 -45 -255 -2 2 -331 1959 -523
3112 -83 496 -94 585 -88 681 6 77 41 198 69 231 6 7 9 16 6 18 -2 3 -40 10
-84 16 -102 14 -248 71 -394 155 -353 203 -513 253 -774 241 -113 -4 -310 -39
-329 -57 -5 -4 4 -11 19 -14 82 -21 219 -152 327 -313 77 -115 197 -360 241
-493 22 -67 55 -214 90 -410 57 -317 237 -1306 350 -1920 210 -1144 396 -2176
407 -2249 21 -151 -2 -280 -70 -392 -17 -27 -31 -51 -31 -54 0 -3 351 -5 780
-5 429 0 780 1 780 3 0 1 -18 38 -40 81 -90 181 -89 196 100 1226 83 454 216
1181 295 1615 79 435 194 1061 254 1393 61 332 120 636 132 675 49 165 170
409 280 567 71 103 201 229 267 260 28 14 52 28 52 31 0 9 -142 47 -217 59
-89 15 -252 20 -321 10z"/>
<path d="M12275 6554 c-208 -29 -321 -74 -570 -224 -214 -129 -325 -176 -467
-195 -27 -3 -48 -8 -48 -10 0 -2 11 -25 24 -52 46 -92 59 -157 53 -272 -3 -69
-63 -458 -172 -1111 -92 -553 -226 -1365 -300 -1805 -73 -440 -135 -793 -138
-785 -7 19 -559 3324 -587 3513 -34 233 -25 348 36 468 l23 47 -75 11 c-141
21 -250 67 -514 216 -226 128 -366 173 -561 182 -147 7 -317 -14 -428 -53 -7
-2 14 -18 49 -36 187 -93 437 -475 544 -829 14 -46 70 -334 126 -639 55 -305
130 -715 166 -910 36 -195 148 -812 250 -1370 102 -558 207 -1134 234 -1280
64 -350 74 -435 60 -530 -10 -74 -49 -173 -90 -231 l-21 -29 785 0 786 0 -40
78 c-49 96 -62 153 -61 267 0 105 -10 46 256 1500 564 3089 563 3083 584 3150
123 385 387 773 571 837 17 5 30 13 30 17 0 9 -128 45 -213 60 -66 12 -248 21
-292 15z"/>
<path d="M25715 6130 c-11 -4 -6 -16 22 -50 58 -73 139 -201 168 -265 14 -33
35 -96 46 -140 18 -76 19 -127 19 -1082 l0 -1003 -242 -2 -243 -3 -3 -382 -2
-383 245 0 246 0 -3 -677 -3 -678 -24 -70 c-40 -121 -118 -260 -209 -372 l-34
-42 99 6 c231 14 421 -46 718 -225 l110 -67 -165 -3 c-719 -13 -1153 217
-1261 668 -15 66 -17 69 -29 50 -13 -21 -12 -226 1 -335 31 -257 136 -492 291
-653 218 -227 483 -344 913 -404 118 -16 551 -16 675 1 218 29 372 65 537 127
547 204 901 626 1037 1237 63 281 61 215 61 1972 0 1735 1 1690 -55 1911 -119
461 -423 736 -915 828 -44 8 -93 18 -110 22 -34 8 -1868 22 -1890 14z m1595
-761 c219 -27 350 -103 419 -244 63 -128 61 -69 61 -1693 0 -909 -4 -1529 -10
-1612 -47 -615 -222 -913 -614 -1046 -101 -35 -105 -33 -154 39 -82 121 -128
274 -140 462 -4 66 -6 441 -4 833 l3 712 229 0 230 0 0 385 0 385 -230 0 -230
0 0 895 0 895 178 0 c98 0 216 -5 262 -11z"/>
<path d="M18540 6123 c-106 -9 -296 -45 -387 -74 -382 -122 -578 -359 -650
-784 -17 -104 -18 -204 -18 -1860 0 -1913 -3 -1805 56 -1986 141 -432 538
-719 1081 -778 61 -7 402 -11 914 -11 795 0 816 0 803 19 -102 138 -135 190
-174 266 -81 163 -79 144 -83 729 -3 579 0 629 63 872 42 164 102 318 160 413
25 41 43 77 39 80 -13 14 -311 4 -409 -13 -116 -21 -291 -70 -455 -127 -192
-67 -324 -107 -411 -124 -45 -8 -84 -16 -85 -18 -2 -1 26 -32 62 -67 82 -82
138 -168 171 -262 23 -63 27 -94 31 -223 8 -291 -66 -542 -201 -675 -158 -158
-420 -138 -553 42 -23 32 -53 84 -64 116 -52 135 -51 104 -48 1768 3 1444 4
1553 21 1609 45 154 119 255 224 307 57 28 76 32 147 32 72 1 89 -3 148 -32
184 -90 311 -345 325 -647 9 -218 -24 -311 -175 -480 l-89 -101 106 -1 c125
-1 238 -24 443 -89 284 -90 335 -106 448 -134 142 -35 370 -69 370 -56 0 3
-13 25 -30 49 -76 113 -161 343 -208 562 -25 118 -25 129 -29 624 -5 550 -2
589 54 728 27 68 95 178 170 276 l44 57 -883 -2 c-486 -1 -903 -3 -928 -5z"/>
<path d="M21750 5850 c-609 -57 -917 -333 -1007 -902 -17 -105 -18 -219 -18
-1563 0 -1344 1 -1458 18 -1563 72 -454 277 -716 657 -841 317 -104 856 -99
1168 11 352 124 544 356 635 768 21 94 21 115 24 1560 4 1571 4 1574 -47 1775
-107 426 -392 666 -875 740 -122 19 -426 27 -555 15z m424 -780 c107 -41 183
-136 217 -270 12 -46 14 -289 14 -1420 0 -1280 -1 -1369 -18 -1430 -34 -123
-90 -193 -196 -243 -56 -26 -77 -31 -180 -35 -248 -10 -367 62 -439 267 -15
42 -17 173 -20 1406 -2 989 0 1376 8 1420 19 95 48 161 97 215 82 92 171 122
343 116 90 -2 128 -8 174 -26z"/>
<path d="M30250 5853 c-486 -35 -791 -212 -946 -548 -43 -93 -77 -213 -101
-350 -17 -103 -18 -197 -18 -1575 0 -1463 0 -1465 22 -1585 70 -385 226 -616
510 -759 318 -159 964 -176 1340 -34 362 137 573 435 622 881 7 64 11 567 11
1513 0 1541 1 1510 -56 1724 -102 379 -365 615 -781 699 -166 34 -416 48 -603
34z m381 -782 c103 -39 168 -114 213 -244 21 -62 21 -64 24 -1387 2 -911 0
-1351 -8 -1408 -26 -200 -121 -314 -291 -352 -73 -16 -258 -8 -319 14 -72 26
-139 84 -176 151 -67 120 -64 53 -64 1533 0 787 4 1360 9 1388 17 88 51 161
98 214 82 92 171 122 343 116 88 -2 128 -8 171 -25z"/>
<path d="M5865 5789 c-2 -3 8 -21 24 -40 94 -115 175 -260 213 -379 l23 -75 0
-1910 0 -1910 -23 -75 c-38 -122 -116 -261 -210 -378 l-34 -42 686 0 686 0
-48 63 c-109 141 -169 255 -203 386 -18 72 -19 135 -19 1950 0 2062 -3 1941
62 2085 36 80 99 183 165 268 l44 58 -681 2 c-375 2 -684 0 -685 -3z"/>
<path d="M12500 5709 c88 -118 138 -207 174 -307 l31 -87 6 -1695 c6 -1837 3
-1761 59 -1970 92 -339 293 -559 607 -663 200 -67 462 -94 731 -77 718 46
1059 373 1112 1070 6 85 10 724 10 1711 0 1549 0 1577 20 1655 33 128 113 277
212 397 l40 47 -687 0 -687 0 28 -37 c107 -140 179 -268 216 -383 l23 -75 0
-1640 c0 -1789 3 -1692 -58 -1808 -60 -114 -157 -167 -324 -175 -125 -6 -208
9 -283 50 -100 55 -158 149 -180 294 -7 47 -10 573 -8 1679 l3 1610 28 80 c44
124 116 248 230 393 7 9 -129 12 -677 12 l-686 0 60 -81z"/>
</g>
</svg>
